<svg width="520" height="388" viewBox="0 0 520 388" fill="none" xmlns="http://www.w3.org/2000/svg">
<g clip-path="url(#clip0_1175_5631)">
<path d="M520 340.548H0V340.808H520V340.548Z" fill="#EBEBEB"/>
<path d="M328.299 347.63H301.82V347.89H328.299V347.63Z" fill="#EBEBEB"/>
<path d="M473.657 353.257H410.914V353.517H473.657V353.257Z" fill="#EBEBEB"/>
<path d="M296.183 347.755H231.359V348.015H296.183V347.755Z" fill="#EBEBEB"/>
<path d="M189.323 355.534H175.762V355.794H189.323V355.534Z" fill="#EBEBEB"/>
<path d="M264.255 355.534H202.5V355.794H264.255V355.534Z" fill="#EBEBEB"/>
<path d="M94.5466 351.146H54.5586V351.406H94.5466V351.146Z" fill="#EBEBEB"/>
<path d="M246.48 294.164H45.6663C44.0931 294.161 42.5853 293.534 41.4739 292.421C40.3625 291.308 39.7383 289.799 39.7383 288.226V5.9384C39.752 4.37427 40.3822 2.8787 41.4922 1.77655C42.6021 0.674398 44.1021 0.0546814 45.6663 0.052002H246.48C248.055 0.052002 249.565 0.677653 250.679 1.79132C251.793 2.90499 252.418 4.41544 252.418 5.9904V288.226C252.418 289.801 251.793 291.311 250.679 292.425C249.565 293.538 248.055 294.164 246.48 294.164ZM45.6663 0.260003C44.1621 0.262758 42.7204 0.86223 41.6578 1.92684C40.5951 2.99145 39.9983 4.4342 39.9983 5.9384V288.226C39.9983 289.73 40.5951 291.173 41.6578 292.237C42.7204 293.302 44.1621 293.901 45.6663 293.904H246.48C247.985 293.901 249.428 293.302 250.492 292.238C251.556 291.173 252.156 289.731 252.158 288.226V5.9384C252.156 4.43324 251.556 2.99051 250.492 1.9262C249.428 0.861892 247.985 0.262752 246.48 0.260003H45.6663Z" fill="#EBEBEB"/>
<path d="M471.442 294.164H270.618C269.044 294.161 267.535 293.535 266.422 292.422C265.309 291.309 264.682 289.8 264.68 288.226V5.9384C264.696 4.37332 265.329 2.87776 266.44 1.7759C267.552 0.674035 269.053 0.0546522 270.618 0.052002H471.442C473.004 0.0574146 474.502 0.678341 475.609 1.7802C476.717 2.88206 477.346 4.37606 477.36 5.9384V288.226C477.36 289.797 476.737 291.304 475.628 292.417C474.519 293.53 473.013 294.158 471.442 294.164ZM270.618 0.260003C269.113 0.262752 267.67 0.861892 266.606 1.9262C265.542 2.99051 264.942 4.43324 264.94 5.9384V288.226C264.942 289.731 265.542 291.173 266.606 292.238C267.67 293.302 269.113 293.901 270.618 293.904H471.442C472.947 293.901 474.39 293.302 475.454 292.238C476.519 291.173 477.118 289.731 477.12 288.226V5.9384C477.118 4.43324 476.519 2.99051 475.454 1.9262C474.39 0.861892 472.947 0.262752 471.442 0.260003H270.618Z" fill="#EBEBEB"/>
<path d="M203.798 250.339H134.742L130.551 201.979H199.607L203.798 250.339Z" fill="#E6E6E6"/>
<path d="M207.376 250.339H138.32L134.129 201.979H203.185L207.376 250.339Z" fill="#F0F0F0"/>
<path d="M147.762 239.959L145.453 212.368H193.74L196.049 239.959H147.762Z" fill="white"/>
<path d="M219.324 250.338H211.223V340.538H219.324V250.338Z" fill="#E6E6E6"/>
<path d="M221.884 250.338H216.258V340.538H221.884V250.338Z" fill="#F0F0F0"/>
<path d="M143.456 260.291H221.883V250.338H143.456V260.291Z" fill="#F0F0F0"/>
<path d="M146.223 260.302H138.121V340.548H146.223V260.302Z" fill="#E6E6E6"/>
<path d="M148.783 260.302H143.156V340.548H148.783V260.302Z" fill="#F0F0F0"/>
<path d="M88.5547 260.302H80.4531V340.548H88.5547V260.302Z" fill="#E6E6E6"/>
<path d="M91.1147 260.302H85.4883V340.548H91.1147V260.302Z" fill="#F0F0F0"/>
<path d="M168.055 260.302H159.953V340.548H168.055V260.302Z" fill="#E6E6E6"/>
<path d="M170.603 260.302H164.977V340.548H170.603V260.302Z" fill="#F0F0F0"/>
<path d="M143.456 250.338H80.4531V260.291H143.456V250.338Z" fill="#E6E6E6"/>
<path d="M378.395 25.4385H134.691V161.117H378.395V25.4385Z" fill="#E0E0E0"/>
<path d="M391.779 25.4385H135.918V161.117H391.779V25.4385Z" fill="#F5F5F5"/>
<path d="M387.598 156.936V29.6191L140.098 29.6191V156.936H387.598Z" fill="white"/>
<path d="M240.311 156.936L287.039 29.6191H209.923L163.195 156.936H240.311Z" fill="#F5F5F5"/>
<path d="M314.537 156.936L361.264 29.6191H303.087L256.359 156.936H314.537Z" fill="#F5F5F5"/>
<path d="M455.635 210.964H434.918V340.548H455.635V210.964Z" fill="#E6E6E6"/>
<path d="M450.186 340.548H455.636V330.564H444.477L450.186 340.548Z" fill="#FAFAFA"/>
<path d="M264.627 210.964H243.91V340.548H264.627V210.964Z" fill="#E6E6E6"/>
<path d="M455.634 210.964H259.875V337.854H455.634V210.964Z" fill="#FAFAFA"/>
<path d="M451.934 251.909H263.59V216.07H451.934V251.909ZM264.63 250.869H450.894V217.11H264.63V250.869Z" fill="#E6E6E6"/>
<path d="M418.777 233.47H300.394C294.903 233.47 289.609 229.039 285.834 221.302L285.48 220.563H433.68L433.327 221.302C429.52 229.039 424.32 233.47 418.777 233.47ZM287.186 221.572C290.701 228.467 295.506 232.398 300.394 232.398H418.777C423.686 232.398 428.47 228.467 431.985 221.572H287.186Z" fill="#E6E6E6"/>
<path d="M265.325 340.548H259.875V330.564H271.034L265.325 340.548Z" fill="#FAFAFA"/>
<path d="M451.934 292.292H263.59V256.495H451.934V292.292ZM264.63 291.252H450.894V257.535H264.63V291.252Z" fill="#E6E6E6"/>
<path d="M418.777 273.894H300.394C294.903 273.894 289.609 269.454 285.834 261.726L285.48 260.978H433.68L433.327 261.726C429.52 269.412 424.32 273.894 418.777 273.894ZM287.186 262.018C290.701 268.913 295.506 272.854 300.394 272.854H418.777C423.686 272.854 428.47 268.913 431.985 262.018H287.186Z" fill="#E6E6E6"/>
<path d="M451.934 332.748H263.59V296.91H451.934V332.748ZM264.63 331.708H450.894V297.95H264.63V331.708Z" fill="#E6E6E6"/>
<path d="M418.777 314.309H300.394C294.903 314.309 289.609 309.878 285.834 302.151L285.48 301.402H433.68L433.327 302.151C429.52 309.878 424.32 314.309 418.777 314.309ZM287.186 302.442C290.701 309.338 295.506 313.269 300.394 313.269H418.777C423.686 313.269 428.47 309.338 431.985 302.442H287.186Z" fill="#E6E6E6"/>
<path d="M125.819 228.103V230.62H124.217L122.886 250.338H103.292L101.971 230.62H100.359V228.103H125.819Z" fill="#E6E6E6"/>
<path d="M119.372 179.15C117.77 167.398 101.91 164.05 81.7863 163.613C62.6399 163.207 56.5039 156.437 56.5039 156.437C56.5039 156.437 56.5663 183.862 84.1575 193.804C110.355 203.226 120.984 190.923 119.372 179.15Z" fill="#E6E6E6"/>
<path d="M109.597 205.785C109.929 200.959 117.646 192.078 136.21 196.113C149.626 199.035 154.618 192.078 154.618 192.078C154.618 192.078 153.37 211.713 133.194 217.61C114.027 223.215 109.004 214.292 109.597 205.785Z" fill="#E6E6E6"/>
<path d="M113.829 235.508C113.933 235.509 114.037 235.487 114.132 235.444C114.227 235.401 114.312 235.338 114.38 235.258C115.721 233.667 114.619 229.861 113.101 224.588C111.145 217.828 108.712 209.404 110.771 203.299C111.912 200.074 113.246 196.921 114.765 193.856C117.677 187.699 120.193 182.416 118.093 176.821C118.06 176.732 118.01 176.65 117.945 176.581C117.881 176.511 117.803 176.455 117.717 176.416C117.63 176.376 117.537 176.355 117.442 176.351C117.348 176.348 117.253 176.364 117.164 176.398C117.076 176.432 116.995 176.482 116.926 176.548C116.857 176.613 116.802 176.691 116.763 176.778C116.725 176.865 116.704 176.958 116.702 177.053C116.7 177.148 116.716 177.242 116.751 177.33C118.633 182.312 116.356 187.138 113.465 193.253C111.927 196.367 110.572 199.569 109.409 202.842C107.214 209.373 109.71 218.036 111.717 224.983C112.903 229.143 114.13 233.303 113.288 234.343C113.221 234.415 113.17 234.5 113.138 234.593C113.105 234.685 113.093 234.784 113.1 234.881C113.108 234.979 113.136 235.074 113.183 235.161C113.23 235.247 113.294 235.323 113.371 235.383C113.504 235.478 113.666 235.522 113.829 235.508Z" fill="#E6E6E6"/>
<path d="M260.001 387.514C371.367 387.514 461.647 382.243 461.647 375.742C461.647 369.24 371.367 363.969 260.001 363.969C148.635 363.969 58.3555 369.24 58.3555 375.742C58.3555 382.243 148.635 387.514 260.001 387.514Z" fill="#F5F5F5"/>
<path d="M259.96 318.344H112.28L104.199 80.8391H251.879L259.96 318.344Z" fill="#7FB036"/>
<path d="M267.334 310.97H119.654L111.562 73.4656H259.242L267.334 310.97Z" fill="#7FB036"/>
<path opacity="0.3" d="M267.334 310.97H119.654L111.562 73.4656H259.242L267.334 310.97Z" fill="white"/>
<path d="M217.855 171.188C233.667 155.103 232.994 128.801 216.352 112.441C199.71 96.081 173.4 95.8583 157.588 111.943C141.775 128.029 142.448 154.33 159.09 170.69C175.733 187.05 202.042 187.273 217.855 171.188Z" fill="#7FB036"/>
<path d="M222.012 141.586C222.224 147.245 220.99 152.865 218.424 157.914C215.655 163.354 211.424 167.916 206.207 171.087C200.99 174.257 194.993 175.912 188.888 175.864C182.639 175.83 176.51 174.154 171.114 171.003C165.718 167.853 161.246 163.338 158.145 157.914C155.254 152.942 153.639 147.333 153.445 141.586C153.253 137.129 153.969 132.68 155.55 128.509C157.13 124.338 159.542 120.532 162.639 117.322C165.737 114.112 169.454 111.566 173.566 109.837C177.677 108.108 182.098 107.233 186.558 107.266C195.747 107.331 204.557 110.933 211.16 117.324C217.762 123.715 221.648 132.404 222.012 141.586Z" fill="white"/>
<path opacity="0.6" d="M218.403 157.913C215.634 163.354 211.404 167.916 206.187 171.087C200.97 174.257 194.972 175.912 188.867 175.864C182.619 175.83 176.49 174.154 171.094 171.003C165.698 167.853 161.225 163.338 158.125 157.913C166.92 151.917 177.328 148.729 187.973 148.772C198.79 148.795 209.365 151.972 218.403 157.913Z" fill="#7FB036"/>
<path opacity="0.6" d="M198.403 140.73C204.218 134.816 203.97 125.144 197.851 119.128C191.731 113.113 182.057 113.031 176.243 118.946C170.428 124.86 170.676 134.532 176.795 140.547C182.915 146.563 192.589 146.645 198.403 140.73Z" fill="#7FB036"/>
<path d="M237.662 224.962H143.459L142.824 206.242H237.027L237.662 224.962Z" fill="white"/>
<path d="M238.805 258.419H144.591L143.957 239.699H238.171L238.805 258.419Z" fill="white"/>
<path d="M202.449 242.278L179.746 245.398C179.529 245.423 179.32 245.492 179.131 245.602C178.943 245.711 178.779 245.858 178.65 246.034C178.521 246.21 178.43 246.411 178.382 246.623C178.334 246.836 178.331 247.056 178.373 247.27L181.358 262.486C181.455 262.932 181.716 263.326 182.09 263.59C182.463 263.853 182.922 263.968 183.375 263.91L206.078 260.79C206.294 260.763 206.503 260.692 206.69 260.581C206.878 260.469 207.04 260.321 207.168 260.145C207.296 259.968 207.386 259.767 207.433 259.555C207.48 259.342 207.482 259.122 207.441 258.908L204.466 243.693C204.369 243.247 204.107 242.854 203.733 242.592C203.36 242.33 202.901 242.218 202.449 242.278ZM195.928 257.691L191.768 258.242L191.362 253.334C190.934 253.148 190.556 252.862 190.261 252.5C189.966 252.138 189.762 251.711 189.667 251.254C189.591 250.899 189.59 250.533 189.664 250.178C189.738 249.824 189.885 249.488 190.097 249.194C190.309 248.9 190.58 248.654 190.893 248.471C191.206 248.288 191.553 248.173 191.914 248.134C192.652 248.038 193.4 248.224 194.008 248.653C194.617 249.083 195.042 249.725 195.2 250.453C195.29 250.892 195.263 251.348 195.12 251.773C194.978 252.199 194.725 252.579 194.389 252.876L195.928 257.691Z" fill="#7FB036"/>
<path d="M200.2 241.457C199.799 241.508 199.393 241.407 199.062 241.174C198.731 240.941 198.499 240.593 198.411 240.198L198.12 238.711C197.704 236.682 196.567 234.872 194.918 233.617C193.27 232.363 191.222 231.748 189.155 231.889C188.112 231.948 187.094 232.231 186.17 232.719C185.247 233.207 184.438 233.888 183.801 234.716C183.164 235.543 182.712 236.499 182.477 237.516C182.241 238.534 182.228 239.591 182.437 240.614L182.77 242.33C182.808 242.52 182.807 242.717 182.766 242.906C182.724 243.096 182.644 243.275 182.529 243.431C182.414 243.588 182.268 243.719 182.1 243.816C181.932 243.913 181.746 243.974 181.553 243.994C181.151 244.05 180.742 243.952 180.41 243.718C180.078 243.484 179.847 243.133 179.764 242.736L179.483 241.29C179.198 239.939 179.188 238.544 179.455 237.19C179.723 235.835 180.261 234.548 181.038 233.407C181.815 232.265 182.815 231.293 183.978 230.547C185.14 229.802 186.441 229.3 187.803 229.07C190.756 228.575 193.786 229.235 196.264 230.914C198.743 232.592 200.48 235.161 201.115 238.087L201.448 239.793C201.487 239.985 201.484 240.184 201.441 240.375C201.398 240.567 201.315 240.747 201.197 240.904C201.079 241.061 200.929 241.192 200.757 241.287C200.586 241.382 200.396 241.44 200.2 241.457Z" fill="#7FB036"/>
<path d="M223.258 284.638H161.929L161.523 272.449H222.842L223.258 284.638Z" fill="#7FB036"/>
<path d="M193.669 215.602C193.687 216.047 193.615 216.491 193.457 216.906C193.299 217.322 193.057 217.702 192.748 218.022C192.439 218.342 192.068 218.595 191.658 218.768C191.248 218.94 190.807 219.027 190.362 219.024C189.445 219.017 188.565 218.658 187.905 218.021C187.245 217.384 186.855 216.519 186.815 215.602C186.797 215.158 186.869 214.714 187.027 214.298C187.186 213.882 187.427 213.503 187.736 213.183C188.045 212.863 188.416 212.609 188.826 212.437C189.237 212.265 189.678 212.178 190.122 212.181C191.04 212.185 191.921 212.544 192.581 213.181C193.242 213.818 193.631 214.685 193.669 215.602Z" fill="#263238"/>
<path d="M178.881 215.602C178.901 216.047 178.83 216.492 178.672 216.908C178.514 217.325 178.273 217.705 177.964 218.025C177.654 218.345 177.283 218.599 176.872 218.771C176.461 218.942 176.019 219.029 175.574 219.024C174.658 219.017 173.78 218.657 173.122 218.02C172.463 217.383 172.075 216.518 172.038 215.602C172.02 215.158 172.092 214.714 172.25 214.298C172.408 213.882 172.649 213.503 172.959 213.183C173.268 212.863 173.639 212.609 174.049 212.437C174.459 212.265 174.9 212.178 175.345 212.181C176.262 212.185 177.141 212.544 177.8 213.181C178.459 213.819 178.846 214.686 178.881 215.602Z" fill="#263238"/>
<path d="M164.186 215.602C164.204 216.047 164.132 216.491 163.974 216.906C163.816 217.322 163.574 217.702 163.265 218.022C162.956 218.342 162.585 218.595 162.175 218.768C161.765 218.94 161.324 219.027 160.879 219.024C159.962 219.019 159.082 218.661 158.424 218.023C157.765 217.386 157.377 216.518 157.343 215.602C157.324 215.158 157.396 214.714 157.555 214.298C157.713 213.882 157.954 213.503 158.263 213.183C158.572 212.863 158.943 212.609 159.354 212.437C159.764 212.265 160.205 212.178 160.65 212.181C161.567 212.185 162.446 212.544 163.105 213.181C163.764 213.819 164.151 214.686 164.186 215.602Z" fill="#263238"/>
<path d="M208.408 215.602C208.426 216.047 208.354 216.491 208.196 216.906C208.037 217.322 207.796 217.702 207.487 218.022C207.178 218.342 206.807 218.595 206.397 218.768C205.986 218.94 205.545 219.027 205.101 219.024C204.184 219.019 203.304 218.661 202.645 218.023C201.987 217.386 201.599 216.518 201.565 215.602C201.549 215.159 201.624 214.717 201.784 214.304C201.944 213.89 202.187 213.513 202.497 213.196C202.807 212.879 203.179 212.629 203.589 212.459C203.999 212.29 204.439 212.206 204.882 212.212C205.792 212.219 206.664 212.574 207.32 213.205C207.976 213.836 208.365 214.694 208.408 215.602Z" fill="#263238"/>
<path d="M223.143 215.602C223.163 216.047 223.092 216.492 222.934 216.908C222.776 217.325 222.535 217.705 222.226 218.025C221.916 218.345 221.545 218.599 221.134 218.771C220.723 218.942 220.281 219.029 219.836 219.024C218.92 219.017 218.042 218.657 217.383 218.02C216.725 217.383 216.337 216.518 216.3 215.602C216.281 215.158 216.354 214.714 216.512 214.298C216.67 213.882 216.911 213.503 217.22 213.183C217.53 212.863 217.9 212.609 218.311 212.437C218.721 212.265 219.162 212.178 219.607 212.181C220.524 212.185 221.403 212.544 222.062 213.181C222.721 213.819 223.108 214.686 223.143 215.602Z" fill="#263238"/>
<path d="M347.269 124.103C348.652 126.329 349.806 128.45 350.992 130.665C352.177 132.881 353.249 135.106 354.299 137.384C356.442 141.996 358.216 146.77 359.603 151.663C359.79 152.277 359.925 152.932 360.081 153.566L360.31 154.533L360.425 155.012L360.56 155.802C360.794 157.595 360.685 159.417 360.237 161.169C359.519 163.889 358.427 166.496 356.993 168.917C354.426 173.315 351.324 177.377 347.757 181.012L343.379 177.705C345.577 173.665 347.532 169.497 349.234 165.225C349.993 163.342 350.527 161.377 350.825 159.369C350.921 158.756 350.893 158.13 350.742 157.529L350.326 156.26C350.16 155.74 350.004 155.22 349.806 154.689C348.224 150.399 346.394 146.204 344.325 142.126C342.245 137.966 340.009 133.806 337.773 129.833L347.269 124.103Z" fill="#FFBCBA"/>
<path d="M344.491 176.259L339.707 178.786L345.198 185.213C345.198 185.213 348.63 182.894 348.786 179.358L344.491 176.259Z" fill="#FFBCBA"/>
<path d="M333.289 182.749L339.165 187.418L345.197 185.214L339.706 178.786L333.289 182.749Z" fill="#FFBCBA"/>
<path d="M313.196 90.0743C313.082 90.6567 312.676 91.0623 312.302 90.9895C311.927 90.9167 311.709 90.3759 311.823 89.8039C311.938 89.2319 312.343 88.7639 312.728 88.8887C313.113 89.0135 313.311 89.4919 313.196 90.0743Z" fill="#263238"/>
<path d="M312.73 91.0728C311.682 92.7017 310.416 94.1786 308.965 95.4616C309.307 95.8166 309.723 96.0934 310.182 96.2729C310.642 96.4524 311.135 96.5304 311.627 96.5016L312.73 91.0728Z" fill="#FFBCBA"/>
<path d="M310.859 111.477V104.655L319.887 105.695C319.887 105.695 319.741 111.561 314.687 113.287L310.859 111.477Z" fill="#FFBCBA"/>
<path d="M313.457 99.7463L319.811 101.577L319.926 105.747L310.898 104.655L313.457 99.7463Z" fill="#FFBCBA"/>
<path opacity="0.2" d="M319.811 101.577L313.456 99.7463L312.219 102.118C312.286 103.986 312.87 105.799 313.906 107.356C314.941 108.913 316.387 110.152 318.084 110.937C319.176 109.412 319.814 107.609 319.925 105.737L319.811 101.577Z" fill="#5D4916"/>
<path d="M315.964 87.2974C316.03 87.2956 316.095 87.275 316.15 87.238C316.206 87.2009 316.25 87.149 316.277 87.0881C316.304 87.0272 316.314 86.9599 316.304 86.8938C316.295 86.8278 316.267 86.7658 316.224 86.715C315.858 86.3025 315.399 85.9834 314.886 85.7843C314.372 85.5853 313.818 85.5122 313.27 85.571C313.18 85.5863 313.1 85.6365 313.048 85.7105C312.995 85.7846 312.974 85.8766 312.989 85.9662C313.004 86.0565 313.054 86.1373 313.128 86.1916C313.202 86.2459 313.294 86.2695 313.384 86.2574C313.818 86.2148 314.256 86.2766 314.661 86.4376C315.067 86.5986 315.428 86.8542 315.714 87.183C315.746 87.2178 315.784 87.2458 315.827 87.2654C315.87 87.2851 315.916 87.2959 315.964 87.2974Z" fill="#263238"/>
<path d="M329.254 100.599C328.214 105.955 327.57 113.37 331.334 116.938C331.334 116.938 329.878 122.366 319.894 122.366C308.964 122.366 314.642 117.603 314.642 117.603C319.187 116.189 319.146 111.02 318.106 106.86L329.254 100.599Z" fill="#FFBCBA"/>
<path d="M333.361 120.515C334.339 119.142 334.297 114.785 333.257 114.015C331.583 112.777 324.397 112.486 314.725 114.712C315.765 118.934 313.539 121.139 313.539 121.139L333.361 120.515Z" fill="#363636"/>
<path d="M365.872 367.421C365.575 367.526 365.261 367.57 364.947 367.553C364.633 367.535 364.325 367.455 364.042 367.317C363.935 367.218 363.861 367.087 363.831 366.944C363.801 366.8 363.817 366.651 363.876 366.517C363.908 366.404 363.965 366.3 364.043 366.212C364.12 366.124 364.215 366.054 364.323 366.007C365.311 365.529 367.578 366.454 367.682 366.496C367.713 366.508 367.739 366.53 367.758 366.558C367.777 366.586 367.786 366.618 367.786 366.652C367.786 366.685 367.777 366.718 367.761 366.747C367.744 366.776 367.721 366.801 367.692 366.818C367.106 367.076 366.497 367.278 365.872 367.421ZM364.676 366.246C364.608 366.262 364.541 366.287 364.479 366.319C364.414 366.343 364.355 366.381 364.308 366.432C364.261 366.483 364.227 366.544 364.208 366.61C364.115 366.922 364.208 367.026 364.271 367.057C364.666 367.39 366.122 367.057 367.151 366.673C366.368 366.349 365.523 366.203 364.676 366.246Z" fill="#363636"/>
<path d="M367.653 366.829H367.57C366.738 366.589 364.97 365.331 364.949 364.509C364.948 364.379 364.992 364.252 365.074 364.15C365.155 364.048 365.269 363.976 365.396 363.948C365.52 363.902 365.652 363.883 365.783 363.894C365.914 363.905 366.041 363.945 366.156 364.01C367.133 364.509 367.757 366.527 367.778 366.621C367.793 366.646 367.8 366.675 367.8 366.704C367.8 366.733 367.793 366.762 367.778 366.787C367.762 366.803 367.742 366.815 367.721 366.823C367.699 366.83 367.676 366.832 367.653 366.829ZM365.573 364.239H365.49C365.282 364.312 365.282 364.416 365.282 364.468C365.282 364.957 366.468 365.945 367.362 366.34C367.144 365.757 366.665 364.603 366.031 364.26C365.89 364.196 365.73 364.188 365.584 364.239H365.573Z" fill="#363636"/>
<path d="M311.857 368.649C310.921 368.649 310.016 368.514 309.715 368.098C309.636 367.987 309.594 367.854 309.594 367.718C309.594 367.582 309.636 367.449 309.715 367.338C309.774 367.237 309.854 367.148 309.949 367.079C310.043 367.009 310.151 366.959 310.266 366.933C311.483 366.6 314.041 368.056 314.145 368.118C314.177 368.134 314.203 368.16 314.218 368.192C314.233 368.224 314.237 368.261 314.229 368.295C314.225 368.331 314.209 368.364 314.185 368.39C314.161 368.417 314.129 368.434 314.093 368.441C313.356 368.576 312.607 368.646 311.857 368.649ZM310.703 367.224C310.593 367.206 310.48 367.206 310.37 367.224C310.3 367.238 310.233 367.267 310.174 367.308C310.115 367.349 310.065 367.402 310.027 367.463C309.902 367.681 309.954 367.785 310.027 367.848C310.37 368.326 312.211 368.337 313.573 368.139C312.684 367.653 311.709 367.342 310.703 367.224Z" fill="#363636"/>
<path d="M314.08 368.441H314.007C313.123 368.045 311.376 366.465 311.511 365.633C311.511 365.435 311.678 365.196 312.156 365.154C312.327 365.134 312.5 365.15 312.665 365.2C312.83 365.25 312.982 365.334 313.113 365.445C313.779 366.242 314.179 367.228 314.257 368.264C314.257 368.294 314.25 368.323 314.237 368.35C314.225 368.377 314.207 368.401 314.184 368.42C314.152 368.436 314.116 368.443 314.08 368.441ZM312.291 365.477H312.187C311.875 365.477 311.855 365.622 311.855 365.664C311.771 366.163 312.957 367.411 313.862 367.952C313.782 367.117 313.444 366.328 312.895 365.695C312.724 365.549 312.505 365.472 312.281 365.477H312.291Z" fill="#363636"/>
<path d="M322.11 368.264H314.798L314.07 351.322H321.382L322.11 368.264Z" fill="#FFBCBA"/>
<path d="M375.804 364.884L368.659 366.434L361.473 350.646L368.628 349.107L375.804 364.884Z" fill="#FFBCBA"/>
<path d="M367.962 365.716L376.001 363.979C376.142 363.949 376.288 363.968 376.417 364.032C376.545 364.097 376.648 364.202 376.709 364.333L379.496 370.386C379.57 370.532 379.608 370.694 379.608 370.858C379.607 371.023 379.568 371.185 379.493 371.331C379.418 371.477 379.309 371.603 379.176 371.699C379.043 371.795 378.889 371.858 378.726 371.883C375.918 372.434 374.514 372.57 370.989 373.329C368.815 373.807 363.906 375.003 360.901 375.648C357.895 376.293 356.865 373.412 358.041 372.882C363.293 370.479 365.477 368.368 366.901 366.402C367.159 366.051 367.537 365.807 367.962 365.716Z" fill="#263238"/>
<path d="M314.852 367.421H322.84C322.985 367.422 323.125 367.472 323.238 367.563C323.351 367.653 323.431 367.779 323.464 367.921L324.909 374.421C324.952 374.578 324.956 374.743 324.924 374.902C324.891 375.061 324.821 375.211 324.72 375.338C324.619 375.466 324.489 375.568 324.341 375.636C324.193 375.704 324.032 375.737 323.869 375.731C320.988 375.679 316.828 375.513 313.209 375.513C308.966 375.513 305.316 375.741 300.344 375.741C297.339 375.741 296.507 372.705 297.765 372.424C303.485 371.176 308.165 371.041 313.105 367.993C313.624 367.646 314.228 367.448 314.852 367.421Z" fill="#263238"/>
<path d="M344.42 118.612C351.273 120.182 356.9 137.685 356.9 137.685L343.203 148.158C339.648 144.357 337.139 139.699 335.923 134.638C333.5 125.465 337.41 116.989 344.42 118.612Z" fill="#363636"/>
<path opacity="0.4" d="M344.42 118.612C351.273 120.182 356.9 137.685 356.9 137.685L343.203 148.158C339.648 144.357 337.139 139.699 335.923 134.638C333.5 125.465 337.41 116.989 344.42 118.612Z" fill="#5D4916"/>
<path d="M308.361 139.485C306.656 141.326 304.95 142.969 303.161 144.685C302.277 145.517 301.383 146.349 300.468 147.15L299.085 148.366L298.741 148.668L298.149 149.146C297.539 149.634 296.863 150.033 296.141 150.332C295.339 150.673 294.476 150.849 293.604 150.852C292.859 150.855 292.119 150.725 291.42 150.467C290.644 150.172 289.937 149.722 289.34 149.146C288.578 148.402 288.019 147.474 287.717 146.453C287.56 145.949 287.458 145.429 287.416 144.903C287.361 144.287 287.361 143.668 287.416 143.052C287.468 142.553 287.53 142.116 287.613 141.71C287.898 140.292 288.302 138.901 288.82 137.55C289.288 136.267 289.826 135.01 290.432 133.786C291.097 132.465 291.732 131.498 292.366 130.395C294.943 126.174 297.883 122.186 301.154 118.477C304.392 114.789 307.96 111.406 311.814 108.368L315.641 112.31C312.958 115.908 310.317 119.766 307.873 123.562C305.44 127.337 303.218 131.243 301.217 135.262C300.769 136.24 300.177 137.342 299.896 138.133C299.524 139.051 299.201 139.988 298.929 140.941C298.667 141.798 298.468 142.674 298.336 143.562C298.329 143.7 298.329 143.839 298.336 143.978C298.336 144.061 298.336 144.102 298.336 143.884C298.319 143.65 298.273 143.42 298.201 143.198C297.976 142.46 297.564 141.794 297.005 141.263C296.507 140.806 295.924 140.453 295.289 140.223C294.73 140.012 294.139 139.902 293.541 139.901C292.967 139.894 292.398 140.003 291.867 140.223C291.687 140.296 291.514 140.383 291.347 140.483L291.742 140.119L293.001 138.975L295.486 136.646C297.129 135.096 298.783 133.442 300.343 131.903L308.361 139.485Z" fill="#FFBCBA"/>
<path opacity="0.2" d="M338.541 131.466C342.264 135.148 343.481 141.866 343.741 147.69L343.138 148.158C339.582 144.357 337.074 139.699 335.858 134.638C335.722 134.098 335.598 133.598 335.504 133.006L338.541 131.466Z" fill="#5D4916"/>
<path d="M301.092 125.892C299.594 133.796 298.658 150.03 302.995 182.166H342.161C342.432 176.166 338.656 146.858 344.449 118.56C340.121 117.729 335.744 117.177 331.345 116.906C325.803 116.589 320.247 116.589 314.705 116.906C312.875 117.073 311.065 117.343 309.505 117.624C307.43 117.988 305.515 118.973 304.013 120.45C302.51 121.926 301.492 123.824 301.092 125.892Z" fill="#363636"/>
<path opacity="0.4" d="M301.092 125.892C299.594 133.796 298.658 150.03 302.995 182.166H342.161C342.432 176.166 338.656 146.858 344.449 118.56C340.121 117.729 335.744 117.177 331.345 116.906C325.803 116.589 320.247 116.589 314.705 116.906C312.875 117.073 311.065 117.343 309.505 117.624C307.43 117.988 305.515 118.973 304.013 120.45C302.51 121.926 301.492 123.824 301.092 125.892Z" fill="#5D4916"/>
<path opacity="0.2" d="M307.083 137.613L300.011 135.917C299.792 140.202 299.771 145.506 300.083 152.069C303.339 148.366 307.499 142.584 307.083 137.613Z" fill="#5D4916"/>
<path opacity="0.2" d="M314.07 351.333L314.445 360.058H321.766L321.392 351.333H314.07Z" fill="#5D4916"/>
<path opacity="0.2" d="M368.628 349.107L361.473 350.657L365.175 358.79L372.33 357.24L368.628 349.107Z" fill="#5D4916"/>
<path d="M332.728 92.7783C330.856 99.7879 330.107 103.99 325.781 106.902C319.281 111.332 311.169 106.257 310.961 98.8519C310.732 92.1647 313.842 81.8167 321.361 80.4023C323.013 80.0922 324.717 80.208 326.313 80.7387C327.908 81.2694 329.342 82.1976 330.479 83.4358C331.616 84.674 332.42 86.1814 332.813 87.8159C333.206 89.4504 333.177 91.1582 332.728 92.7783Z" fill="#FFBCBA"/>
<path d="M316.318 93.0384C315.964 92.1024 314.352 84.8536 315.871 82.9712C317.389 81.0888 334.705 82.4512 337.264 84.968C341.517 89.128 338.564 92.872 333.915 97.6872C330.42 101.306 330.285 105.383 328.517 106.007C325.397 107.047 320.634 106.07 319.677 102.773C318.72 99.476 316.318 93.0384 316.318 93.0384Z" fill="#263238"/>
<path d="M335.161 76.7207C329.046 74.1207 317.575 77.0015 311.377 75.5039C311.298 77.8087 312.056 80.0642 313.511 81.8536C314.965 83.643 317.019 84.8453 319.291 85.2383C324.433 86.2182 329.657 86.7023 334.891 86.6839C341.693 86.3719 340.361 78.9359 335.161 76.7207Z" fill="#263238"/>
<path d="M336.117 85.1863C338.351 85.4061 340.601 84.9764 342.596 83.9487C343.74 86.7151 337.448 87.4743 336.117 85.1863Z" fill="#263238"/>
<path d="M319.645 93.3295C319.505 95.1331 318.774 96.8401 317.565 98.1863C315.964 99.9439 314.3 98.8415 314.019 96.7095C313.769 94.7751 314.289 91.5095 316.245 90.5735C318.2 89.6375 319.781 91.1559 319.645 93.3295Z" fill="#FFBCBA"/>
<path d="M316.879 182.198C316.879 182.198 325.199 238.098 329.744 259.043C334.725 281.975 361.495 357.843 361.495 357.843L374.588 355.004C374.588 355.004 355.868 293.166 351.708 261.102C348.484 236.475 342.151 182.177 342.151 182.177L316.879 182.198Z" fill="#F58220"/>
<path d="M358.352 353.486C358.3 353.486 360.796 358.228 360.796 358.228L375.523 355.035L374.285 350.605L358.352 353.486Z" fill="#263238"/>
<path opacity="0.3" d="M322.132 202.113C331.731 203.996 330.712 239.793 329.558 258.211C326.791 245.19 322.735 220.147 319.969 202.373C320.639 202.042 321.402 201.951 322.132 202.113Z" fill="#5D4916"/>
<path d="M302.995 182.198C302.995 182.198 301.955 236.891 302.787 259.158C303.619 282.36 311.721 358.332 311.721 358.332H324.118C324.118 358.332 324.565 283.712 325.158 260.926C325.761 236.09 328.756 182.156 328.756 182.156L302.995 182.198Z" fill="#F58220"/>
<path d="M309.34 353.444C309.277 353.444 310.036 358.581 310.036 358.581H325.106L325.522 353.995L309.34 353.444Z" fill="#263238"/>
<path d="M316.423 128.325C319.928 137.779 299.326 148.917 299.326 148.917L290.402 137.477C290.402 137.477 296.403 125.601 303.683 120.255C312.679 113.661 313.75 121.129 316.423 128.325Z" fill="#363636"/>
<path opacity="0.4" d="M316.423 128.325C319.928 137.779 299.326 148.917 299.326 148.917L290.402 137.477C290.402 137.477 296.403 125.601 303.683 120.255C312.679 113.661 313.75 121.129 316.423 128.325Z" fill="#5D4916"/>
<path d="M397.143 56.5551C417.872 56.5551 434.677 45.8457 434.677 32.6351C434.677 19.4244 417.872 8.71509 397.143 8.71509C376.414 8.71509 359.609 19.4244 359.609 32.6351C359.609 45.8457 376.414 56.5551 397.143 56.5551Z" fill="#363636"/>
<path d="M383.604 44.6782C381.131 44.6703 378.741 43.7911 376.852 42.1953C374.963 40.5996 373.697 38.3892 373.277 35.9526C372.863 33.3134 373.458 30.6151 374.944 28.395C376.43 26.1749 378.697 24.5957 381.295 23.9718C383.427 23.4806 385.659 23.67 387.677 24.5132C389.696 25.3564 391.399 26.8111 392.548 28.6726L416.645 23.7014C417.571 23.4986 418.539 23.6526 419.357 24.1327C420.174 24.6127 420.78 25.3835 421.054 26.291C421.18 26.7682 421.208 27.266 421.135 27.7541C421.062 28.2422 420.891 28.7104 420.631 29.1299C420.371 29.5495 420.028 29.9116 419.623 30.1942C419.219 30.4768 418.761 30.6739 418.277 30.7734L417.653 30.8982C417.561 30.9149 417.473 30.9526 417.397 31.0085C417.322 31.0644 417.26 31.137 417.217 31.2206C417.178 31.3056 417.158 31.3978 417.158 31.491C417.158 31.5843 417.178 31.6765 417.217 31.7614L417.643 32.8638C417.786 33.2212 417.8 33.6171 417.682 33.9835C417.564 34.3499 417.323 34.6638 416.998 34.871C416.743 35.029 416.526 35.2432 416.366 35.4973C416.206 35.7514 416.105 36.0387 416.073 36.3374C416.042 36.6803 415.904 37.0047 415.678 37.2643C415.452 37.5239 415.15 37.7055 414.814 37.783L414.325 37.887C413.987 37.9496 413.637 37.9028 413.326 37.7532C413.016 37.6036 412.761 37.3591 412.599 37.055C412.383 36.6923 412.06 36.406 411.673 36.2359C411.287 36.0659 410.857 36.0207 410.444 36.1065C410.031 36.1924 409.654 36.4051 409.368 36.7149C409.081 37.0248 408.898 37.4163 408.845 37.835C408.816 38.1757 408.679 38.4983 408.455 38.7563C408.231 39.0143 407.93 39.1943 407.597 39.2702L407.108 39.3742C406.769 39.4352 406.42 39.3876 406.11 39.2382C405.8 39.0887 405.545 38.8452 405.381 38.5422C405.226 38.2843 405.016 38.0633 404.766 37.8945C404.517 37.7257 404.233 37.6132 403.936 37.5646C403.536 37.5165 403.167 37.3241 402.899 37.0234C402.631 36.7228 402.482 36.3346 402.48 35.9318V34.7462C402.476 34.6535 402.451 34.5627 402.409 34.4802C402.366 34.3977 402.307 34.3253 402.233 34.268C402.16 34.2107 402.076 34.1699 401.986 34.1484C401.895 34.1268 401.801 34.125 401.71 34.143L394.025 35.7238C393.711 37.8531 392.749 39.834 391.27 41.3972C389.791 42.9603 387.865 44.0297 385.757 44.4598C385.048 44.6047 384.327 44.6779 383.604 44.6782ZM381.524 24.9182C379.165 25.4692 377.103 26.8935 375.752 28.9043C374.401 30.9151 373.862 33.3629 374.244 35.755C374.653 37.9805 375.845 39.9861 377.604 41.409C379.363 42.832 381.574 43.5783 383.836 43.5129C386.098 43.4476 388.261 42.5749 389.936 41.0528C391.61 39.5307 392.684 37.4596 392.964 35.2142V34.8398L401.44 33.1238C401.683 33.065 401.936 33.0611 402.181 33.1123C402.426 33.1635 402.656 33.2687 402.855 33.42C403.055 33.5714 403.218 33.7652 403.333 33.9874C403.447 34.2096 403.511 34.4546 403.52 34.7046V35.8902C403.522 36.0314 403.573 36.1674 403.664 36.2754C403.755 36.3834 403.88 36.4567 404.019 36.483C404.474 36.5482 404.908 36.7159 405.288 36.9736C405.668 37.2313 405.985 37.5721 406.213 37.9702C406.269 38.0825 406.357 38.1748 406.467 38.2344C406.577 38.294 406.703 38.318 406.827 38.303L407.305 38.199C407.427 38.1678 407.535 38.0984 407.613 38.001C407.692 37.9035 407.737 37.7834 407.742 37.6582C407.808 37.0108 408.078 36.401 408.512 35.9169C408.947 35.4329 409.525 35.0996 410.162 34.9653C410.798 34.831 411.461 34.9027 412.055 35.1699C412.648 35.4371 413.141 35.886 413.462 36.4518C413.516 36.5632 413.602 36.6552 413.711 36.7149C413.819 36.7745 413.943 36.7989 414.065 36.7846L414.565 36.6806C414.684 36.6475 414.79 36.5773 414.866 36.48C414.943 36.3828 414.987 36.2636 414.991 36.1398C415.043 35.6832 415.198 35.2444 415.445 34.8569C415.692 34.4694 416.024 34.1434 416.416 33.9038C416.53 33.8212 416.614 33.7026 416.654 33.567C416.693 33.4313 416.686 33.2863 416.634 33.155L416.208 32.0526C416.12 31.8254 416.082 31.5816 416.098 31.3383C416.114 31.0951 416.183 30.8582 416.299 30.6443C416.416 30.4304 416.579 30.2445 416.775 30.0998C416.971 29.955 417.196 29.8548 417.435 29.8062L418.069 29.671C418.413 29.5978 418.738 29.4561 419.025 29.2544C419.312 29.0527 419.556 28.7951 419.742 28.497C419.927 28.1989 420.05 27.8665 420.104 27.5196C420.158 27.1728 420.142 26.8186 420.056 26.4782C419.853 25.8237 419.41 25.2702 418.816 24.9288C418.222 24.5874 417.52 24.4833 416.853 24.6374L392.08 29.7854L391.893 29.463C390.897 27.6912 389.352 26.2914 387.491 25.4752C385.63 24.6591 383.554 24.4709 381.576 24.939L381.524 24.9182ZM383.604 40.8094C382.312 40.8238 381.044 40.4625 379.953 39.7694C378.664 38.9228 377.708 37.655 377.248 36.1823C376.789 34.7096 376.854 33.1231 377.434 31.6933C378.013 30.2635 379.07 29.0788 380.425 28.3413C381.78 27.6038 383.349 27.3592 384.864 27.649C386.38 27.9388 387.748 28.7452 388.735 29.9307C389.722 31.1162 390.268 32.6074 390.278 34.1501C390.289 35.6928 389.764 37.1915 388.794 38.3906C387.823 39.5898 386.467 40.4153 384.956 40.7262C384.513 40.8064 384.064 40.8412 383.614 40.8302L383.604 40.8094ZM383.604 28.527C383.216 28.5292 382.83 28.5675 382.449 28.6414C381.725 28.7958 381.038 29.0913 380.428 29.5111C379.817 29.931 379.296 30.4669 378.892 31.0884C378.489 31.7098 378.212 32.4046 378.078 33.133C377.943 33.8615 377.953 34.6093 378.107 35.3338C378.262 36.0584 378.557 36.7454 378.977 37.3557C379.397 37.966 379.933 38.4877 380.554 38.8909C381.176 39.2941 381.871 39.5709 382.599 39.7056C383.328 39.8403 384.075 39.8302 384.8 39.6758C385.888 39.4494 386.884 38.906 387.663 38.1142C388.442 37.3224 388.97 36.3176 389.179 35.2265C389.388 34.1354 389.269 33.0068 388.838 31.983C388.407 30.9591 387.682 30.0859 386.755 29.4734C385.834 28.8611 384.751 28.5387 383.645 28.5478L383.604 28.527Z" fill="white"/>
<path opacity="0.6" d="M366.6 70.5847C373.412 70.5847 378.934 67.0645 378.934 62.7223C378.934 58.38 373.412 54.8599 366.6 54.8599C359.788 54.8599 354.266 58.38 354.266 62.7223C354.266 67.0645 359.788 70.5847 366.6 70.5847Z" fill="#363636"/>
<path opacity="0.3" d="M346.975 73.7983C349.772 73.7983 352.04 72.3549 352.04 70.5743C352.04 68.7938 349.772 67.3503 346.975 67.3503C344.178 67.3503 341.91 68.7938 341.91 70.5743C341.91 72.3549 344.178 73.7983 346.975 73.7983Z" fill="#363636"/>
</g>
<defs>
<clipPath id="clip0_1175_5631">
<rect width="520" height="387.514" fill="white"/>
</clipPath>
</defs>
</svg>
