<svg width="520" height="480" viewBox="0 0 520 480" fill="none" xmlns="http://www.w3.org/2000/svg">
<g clip-path="url(#clip0_1175_5460)">
<path d="M260.001 480C371.367 480 461.647 473.663 461.647 465.845C461.647 458.027 371.367 451.69 260.001 451.69C148.635 451.69 58.3555 458.027 58.3555 465.845C58.3555 473.663 148.635 480 260.001 480Z" fill="#F5F5F5"/>
<path d="M247.936 353.629H47.122C45.5479 353.626 44.039 352.872 42.926 351.534C41.8129 350.196 41.1863 348.382 41.1836 346.489V7.07758C41.2 5.19579 41.8326 3.39759 42.9442 2.07275C44.0558 0.747909 45.5568 0.00318652 47.122 0H247.936C249.509 0.00331262 251.017 0.757035 252.128 2.09571C253.239 3.43438 253.864 5.2486 253.864 7.14011V346.489C253.864 348.38 253.239 350.195 252.128 351.533C251.017 352.872 249.509 353.626 247.936 353.629ZM47.122 0.250092C45.6168 0.253398 44.1741 0.97378 43.1098 2.25347C42.0455 3.53315 41.4463 5.26783 41.4436 7.07758V346.489C41.4463 348.299 42.0455 350.033 43.1098 351.313C44.1741 352.593 45.6168 353.313 47.122 353.316H247.936C249.44 353.313 250.881 352.592 251.944 351.312C253.007 350.032 253.604 348.297 253.604 346.489V7.07758C253.604 5.26898 253.007 3.53428 251.944 2.25424C250.881 0.974191 249.44 0.253405 247.936 0.250092H47.122Z" fill="#E6E6E6"/>
<path d="M472.889 353.629H272.065C270.492 353.626 268.984 352.872 267.872 351.533C266.761 350.195 266.137 348.38 266.137 346.489V7.07758C266.15 5.19693 266.781 3.39872 267.891 2.07353C269.001 0.74835 270.501 0.00322166 272.065 0H472.889C474.453 0.00322166 475.953 0.74835 477.063 2.07353C478.173 3.39872 478.803 5.19693 478.817 7.07758V346.489C478.817 348.38 478.192 350.195 477.081 351.533C475.97 352.872 474.462 353.626 472.889 353.629ZM272.065 0.250092C270.561 0.253405 269.119 0.974191 268.056 2.25424C266.994 3.53428 266.397 5.26898 266.397 7.07758V346.489C266.397 348.297 266.994 350.032 268.056 351.312C269.119 352.592 270.561 353.313 272.065 353.316H472.889C474.395 353.313 475.839 352.593 476.905 351.314C477.971 350.034 478.572 348.3 478.578 346.489V7.07758C478.572 5.26669 477.971 3.53203 476.905 2.2527C475.839 0.973367 474.395 0.253385 472.889 0.250092H272.065Z" fill="#E6E6E6"/>
<path d="M89.3779 417.002H46.5195V417.315H89.3779V417.002Z" fill="#E0E0E0"/>
<path d="M176.737 414.501H133.754V414.814H176.737V414.501Z" fill="#E0E0E0"/>
<path d="M232.67 414.501H222.27V414.814H232.67V414.501Z" fill="#E0E0E0"/>
<path d="M128.721 425.18H80.6211V425.493H128.721V425.18Z" fill="#E0E0E0"/>
<path d="M295.089 416.84H272.625V417.152H295.089V416.84Z" fill="#E0E0E0"/>
<path d="M333.391 416.84H304.344V417.152H333.391V416.84Z" fill="#E0E0E0"/>
<path d="M473.481 422.129H408.543V422.442H473.481V422.129Z" fill="#E0E0E0"/>
<path d="M520 404.735H0V405.048H520V404.735Z" fill="#EBEBEB"/>
<path opacity="0.8" d="M348.223 25.947L345.633 68.8126C345.545 70.2652 345.033 71.6337 344.187 72.6765C343.706 73.2944 343.124 73.7882 342.479 74.1278C341.834 74.4675 341.138 74.6459 340.433 74.6522H311.843C311.219 74.6599 310.6 74.511 310.026 74.2148C309.452 73.9187 308.936 73.482 308.51 72.9325C308.084 72.383 307.759 71.7328 307.554 71.0234C307.349 70.3141 307.269 69.5611 307.319 68.8126L309.919 25.947C310.026 24.3697 310.617 22.8969 311.579 21.8168C312.541 20.7367 313.804 20.1271 315.119 20.1073H343.709C344.334 20.0956 344.954 20.242 345.529 20.5369C346.104 20.8318 346.621 21.2687 347.047 21.8193C347.472 22.3699 347.797 23.0218 348 23.7329C348.202 24.444 348.278 25.1983 348.223 25.947Z" fill="#E0E0E0"/>
<path d="M335.618 47.2637C336.702 41.0313 334.177 35.1223 329.978 34.0656C325.778 33.0089 321.494 37.2046 320.409 43.4369C319.325 49.6693 321.85 55.5783 326.049 56.635C330.249 57.6918 334.533 53.4961 335.618 47.2637Z" fill="white"/>
<path d="M339.434 71.7011H313.268C311.604 71.7011 310.46 70.7382 310.418 69.4002C310.356 67.4495 318.842 59.009 326.892 59.7467H327.079C332.024 59.9573 336.767 62.1592 340.547 65.999C344.437 69.6753 340.766 71.7011 339.434 71.7011Z" fill="white"/>
<path d="M200.721 73.0891C197.987 73.0761 195.354 71.8417 193.334 69.6257C191.314 67.4096 190.051 64.37 189.791 61.0972C189.67 59.5429 189.819 57.9752 190.229 56.4939C190.639 55.0126 191.3 53.65 192.172 52.4928C193.043 51.3356 194.105 50.409 195.291 49.772C196.476 49.135 197.759 48.8015 199.057 48.7927C201.792 48.8057 204.424 50.0401 206.444 52.2561C208.464 54.4722 209.727 57.5118 209.988 60.7846C210.109 62.3389 209.96 63.9066 209.55 65.3879C209.14 66.8692 208.478 68.2318 207.607 69.389C206.735 70.5462 205.673 71.4728 204.488 72.1098C203.302 72.7468 202.02 73.0803 200.721 73.0891ZM199.504 55.2451C198.895 55.2451 198.292 55.3985 197.735 55.6954C197.177 55.9923 196.678 56.4263 196.269 56.9692C195.859 57.5122 195.549 58.1522 195.357 58.8481C195.166 59.5439 195.098 60.2802 195.157 61.0097C195.285 62.5423 195.879 63.9641 196.826 65.0025C197.772 66.041 199.003 66.6229 200.284 66.6367C200.893 66.635 201.495 66.4803 202.051 66.1826C202.607 65.8849 203.105 65.4507 203.513 64.908C203.922 64.3652 204.231 63.7258 204.422 63.0308C204.613 62.3358 204.681 61.6005 204.621 60.8721C204.494 59.3459 203.904 57.9292 202.965 56.8917C202.025 55.8541 200.801 55.2681 199.525 55.2451H199.504Z" fill="#E0E0E0"/>
<path d="M201.241 54.3072L197.413 54.3698L195.375 24.709L199.213 24.6589L201.241 54.3072Z" fill="#E0E0E0"/>
<path d="M202.841 25.9845L195.644 26.0971L195.332 21.4829L202.529 21.3704L202.841 25.9845Z" fill="#E0E0E0"/>
<path d="M203.258 31.9115L196.488 32.0116L196.176 27.3974L202.936 27.2974L203.258 31.9115Z" fill="#E0E0E0"/>
<path d="M203.839 40.2648L197.932 40.3523L197.609 35.7506L203.517 35.6631L203.839 40.2648Z" fill="#E0E0E0"/>
<path d="M82.4842 325.169C82.5063 325.542 82.5445 325.913 82.5986 326.282C82.957 328.68 83.9533 330.874 85.4378 332.534C87.124 334.458 89.3533 335.543 91.6778 335.572H179.547C181.63 335.613 183.641 334.663 185.144 332.931C186.648 331.198 187.522 328.822 187.576 326.319C187.6 324.836 187.379 323.362 186.927 321.982C186.475 320.601 185.8 319.342 184.942 318.276C184.084 317.211 183.059 316.36 181.926 315.772C180.793 315.184 179.575 314.872 178.341 314.852H90.4818C89.3775 314.836 88.2825 315.097 87.267 315.618C86.2515 316.14 85.3379 316.912 84.5849 317.883C83.8318 318.854 83.256 320.004 82.8942 321.259C82.5325 322.514 82.3928 323.845 82.4842 325.169Z" fill="#F0F0F0"/>
<path d="M187.608 326.281C187.601 326.617 187.573 326.951 187.524 327.282C187.271 324.553 186.196 322.03 184.503 320.187C182.809 318.345 180.614 317.31 178.331 317.278L84.8867 317.453C86.3964 315.714 88.4119 314.754 90.5027 314.777H178.372C179.613 314.766 180.843 315.058 181.988 315.634C183.133 316.211 184.168 317.062 185.031 318.134C185.895 319.206 186.568 320.477 187.011 321.871C187.454 323.265 187.657 324.753 187.608 326.244V326.281Z" fill="#E0E0E0"/>
<path d="M172.566 319.804L172.857 324.806L176.799 323.043L177.693 325.544L173.679 327.194L176.487 331.433L174.719 333.034L171.984 328.632L169.8 333.034L167.855 331.433L170.133 327.194L165.973 325.606L166.565 323.105L170.725 324.806L170.434 319.804H172.566Z" fill="white"/>
<path d="M148.532 319.804L148.834 324.806L152.765 323.043L153.66 325.544L149.635 327.132L152.453 331.371L150.633 332.972L147.898 328.57L145.714 332.972L143.769 331.371L146.047 327.132L141.887 325.544L142.49 323.043L146.65 324.744L146.359 319.742L148.532 319.804Z" fill="white"/>
<path d="M124.508 319.804L124.799 324.806L128.74 323.043L129.635 325.544L125.61 327.132L128.418 331.371L126.598 332.972L123.863 328.57L121.679 332.972L119.734 331.371L122.012 327.132L117.852 325.544L118.455 323.043L122.615 324.744L122.324 319.742L124.508 319.804Z" fill="white"/>
<path d="M100.475 319.804L100.766 324.806L104.708 323.043L105.602 325.544L101.577 327.132L104.385 331.371L102.576 332.971L99.8406 328.632L97.6462 333.034L95.6806 331.433L97.9686 327.194L93.8086 325.606L94.4118 323.105L98.5718 324.806L98.2806 319.804H100.475Z" fill="white"/>
<path d="M158.852 311.164H154.754L154.764 309.913H158.862L158.852 311.164Z" fill="#E0E0E0"/>
<path d="M176.458 311.164H163.094L163.115 309.913H176.479L176.458 311.164Z" fill="#E0E0E0"/>
<g opacity="0.8">
<path d="M280.156 304.861L296.734 335.535L351.396 269.811C351.45 269.754 351.493 269.686 351.524 269.609C351.555 269.532 351.574 269.448 351.578 269.363C351.582 269.278 351.573 269.192 351.549 269.111C351.526 269.03 351.49 268.956 351.443 268.892C351.396 268.828 351.339 268.776 351.275 268.738C351.211 268.701 351.142 268.679 351.071 268.673C351 268.668 350.928 268.68 350.861 268.708C350.794 268.735 350.732 268.779 350.679 268.836L298.585 317.953L288.747 298.884L280.156 304.861Z" fill="#E0E0E0"/>
</g>
<path opacity="0.1" d="M270.253 86.5566L231.004 263.071H244.202L283.014 86.5566H270.253Z" fill="white"/>
<path opacity="0.1" d="M290.629 86.5566L251.379 263.071H277.566L316.379 86.5566H290.629Z" fill="white"/>
<path d="M431.922 245.815L440.242 104.138C440.319 103.049 440.205 101.953 439.908 100.921C439.611 99.8887 439.137 98.9429 438.516 98.1449C437.895 97.3468 437.142 96.7144 436.306 96.2885C435.469 95.8626 434.567 95.6527 433.659 95.6724L228.009 95.885C226.096 95.9167 224.261 96.8018 222.86 98.3683C221.459 99.9349 220.592 102.071 220.427 104.363L212.159 246.052C212.084 247.141 212.199 248.238 212.497 249.27C212.796 250.302 213.271 251.248 213.892 252.046C214.514 252.844 215.267 253.476 216.105 253.902C216.942 254.327 217.844 254.537 218.753 254.518L424.319 254.305C426.238 254.282 428.081 253.399 429.487 251.829C430.893 250.258 431.761 248.114 431.922 245.815Z" fill="#313131"/>
<path d="M429.281 242.726L437.601 101.049C437.68 99.9604 437.567 98.8636 437.27 97.8304C436.974 96.7971 436.5 95.8505 435.879 95.052C435.258 94.2536 434.504 93.6212 433.666 93.1959C432.829 92.7707 431.926 92.5621 431.017 92.5838L225.368 92.7964C223.455 92.8256 221.62 93.7101 220.221 95.2775C218.821 96.8448 217.957 98.9828 217.797 101.274L209.477 242.964C209.399 244.052 209.513 245.148 209.81 246.181C210.108 247.213 210.582 248.159 211.202 248.957C211.823 249.755 212.576 250.387 213.413 250.813C214.25 251.239 215.151 251.449 216.06 251.429L421.699 251.217C423.614 251.187 425.452 250.302 426.854 248.732C428.255 247.162 429.121 245.021 429.281 242.726Z" fill="#313131"/>
<path opacity="0.6" d="M423.831 244.827C423.408 245.294 422.855 245.552 422.281 245.552L216.631 245.765C216.301 245.76 215.976 245.675 215.674 245.515C215.371 245.355 215.1 245.123 214.874 244.834C214.649 244.544 214.474 244.202 214.362 243.829C214.249 243.456 214.2 243.06 214.219 242.663L222.539 100.987C222.571 100.299 222.824 99.653 223.246 99.1861C223.666 98.7138 224.221 98.4541 224.795 98.4609L430.445 98.2483C430.775 98.2527 431.101 98.3375 431.403 98.4975C431.705 98.6575 431.977 98.8894 432.202 99.1792C432.428 99.469 432.602 99.8106 432.715 100.184C432.827 100.557 432.876 100.953 432.858 101.349L424.538 243.026C424.5 243.712 424.248 244.356 423.831 244.827Z" fill="white"/>
<path d="M355.43 166.936H283.244C282.607 166.949 281.996 167.238 281.524 167.751C281.052 168.264 280.75 168.965 280.675 169.724L279.562 182.416C279.526 182.769 279.554 183.127 279.642 183.466C279.731 183.805 279.879 184.117 280.075 184.382C280.272 184.647 280.514 184.859 280.784 185.003C281.054 185.147 281.346 185.22 281.642 185.218H353.828C354.467 185.202 355.079 184.91 355.553 184.396C356.027 183.881 356.33 183.178 356.408 182.416L357.51 169.724C357.544 169.373 357.515 169.016 357.426 168.679C357.337 168.341 357.189 168.031 356.992 167.767C356.796 167.503 356.555 167.293 356.285 167.15C356.016 167.006 355.724 166.933 355.43 166.936Z" fill="white"/>
<path d="M291.834 218.767H280.57C279.932 218.783 279.32 219.075 278.846 219.589C278.372 220.104 278.069 220.806 277.991 221.568L276.889 234.261C276.855 234.612 276.884 234.969 276.973 235.306C277.062 235.644 277.21 235.954 277.407 236.218C277.603 236.482 277.844 236.692 278.113 236.835C278.383 236.979 278.674 237.051 278.969 237.049H290.232C290.869 237.034 291.48 236.744 291.953 236.232C292.427 235.72 292.731 235.02 292.811 234.261L293.914 221.568C293.949 221.216 293.922 220.858 293.833 220.519C293.745 220.18 293.597 219.868 293.4 219.603C293.203 219.338 292.962 219.126 292.692 218.982C292.422 218.838 292.129 218.765 291.834 218.767Z" fill="white"/>
<path d="M311.283 218.767H300.02C299.381 218.783 298.769 219.075 298.295 219.589C297.821 220.104 297.518 220.806 297.44 221.568L296.338 234.261C296.304 234.612 296.333 234.969 296.422 235.306C296.511 235.644 296.659 235.954 296.856 236.218C297.052 236.482 297.293 236.692 297.563 236.835C297.832 236.979 298.124 237.051 298.418 237.049H309.681C310.318 237.034 310.929 236.744 311.403 236.232C311.876 235.72 312.181 235.02 312.26 234.261L313.363 221.568C313.398 221.216 313.371 220.858 313.282 220.519C313.194 220.18 313.046 219.868 312.849 219.603C312.653 219.338 312.411 219.126 312.141 218.982C311.871 218.838 311.578 218.765 311.283 218.767Z" fill="white"/>
<path d="M330.722 218.767H319.469C318.83 218.783 318.218 219.075 317.744 219.589C317.271 220.104 316.967 220.806 316.89 221.568L315.787 234.261C315.753 234.612 315.782 234.969 315.871 235.306C315.961 235.644 316.108 235.954 316.305 236.218C316.502 236.482 316.743 236.692 317.012 236.835C317.281 236.979 317.573 237.051 317.867 237.049H329.13C329.767 237.034 330.378 236.744 330.852 236.232C331.325 235.72 331.63 235.02 331.71 234.261L332.802 221.568C332.837 221.216 332.81 220.858 332.721 220.519C332.633 220.18 332.485 219.868 332.288 219.603C332.091 219.338 331.85 219.126 331.58 218.982C331.31 218.838 331.017 218.765 330.722 218.767Z" fill="white"/>
<path d="M350.177 218.767H338.914C338.276 218.783 337.664 219.075 337.19 219.589C336.716 220.104 336.412 220.806 336.335 221.568L335.233 234.261C335.199 234.612 335.227 234.969 335.317 235.306C335.406 235.644 335.554 235.954 335.75 236.218C335.947 236.482 336.188 236.692 336.457 236.835C336.726 236.979 337.018 237.051 337.313 237.049H348.576C349.213 237.034 349.823 236.744 350.297 236.232C350.771 235.72 351.075 235.02 351.155 234.261L352.257 221.568C352.293 221.216 352.265 220.858 352.177 220.519C352.088 220.18 351.941 219.868 351.744 219.603C351.547 219.338 351.306 219.126 351.036 218.982C350.765 218.838 350.473 218.765 350.177 218.767Z" fill="white"/>
<path d="M292.302 210.127H337.448C338.533 210.103 339.574 209.61 340.381 208.737C341.187 207.864 341.704 206.67 341.837 205.375L342.388 199.123C342.453 198.52 342.408 197.907 342.257 197.326C342.106 196.746 341.853 196.212 341.514 195.76C341.175 195.309 340.759 194.951 340.294 194.711C339.829 194.471 339.326 194.355 338.821 194.371H293.674C292.589 194.394 291.548 194.888 290.742 195.761C289.935 196.634 289.418 197.828 289.286 199.123L288.734 205.375C288.671 205.978 288.717 206.59 288.869 207.169C289.021 207.749 289.274 208.282 289.613 208.733C289.951 209.184 290.367 209.542 290.831 209.783C291.295 210.023 291.796 210.141 292.302 210.127Z" stroke="#313131" stroke-linecap="round" stroke-linejoin="round"/>
<path d="M358.03 140.501H285.844C285.207 140.52 284.598 140.813 284.126 141.327C283.654 141.841 283.352 142.542 283.275 143.302L282.162 155.994C282.128 156.346 282.157 156.703 282.246 157.04C282.336 157.377 282.483 157.688 282.68 157.952C282.877 158.215 283.118 158.426 283.387 158.569C283.656 158.712 283.948 158.785 284.242 158.783H356.418C357.055 158.768 357.666 158.478 358.14 157.966C358.613 157.454 358.918 156.754 358.997 155.994L360.1 143.302C360.135 142.951 360.108 142.594 360.02 142.256C359.932 141.918 359.786 141.606 359.59 141.341C359.394 141.076 359.154 140.865 358.885 140.72C358.616 140.575 358.325 140.5 358.03 140.501Z" fill="white"/>
<path d="M292.022 176.077C292.066 175.685 292.038 175.286 291.941 174.908C291.845 174.53 291.681 174.182 291.462 173.887C291.242 173.592 290.972 173.358 290.671 173.201C290.369 173.043 290.042 172.967 289.713 172.976C289.007 172.996 288.33 173.32 287.805 173.889C287.28 174.458 286.943 175.234 286.853 176.077C286.813 176.468 286.843 176.866 286.942 177.242C287.041 177.619 287.206 177.965 287.426 178.258C287.646 178.551 287.916 178.784 288.217 178.941C288.518 179.097 288.844 179.174 289.172 179.165C289.877 179.148 290.552 178.826 291.076 178.259C291.599 177.692 291.935 176.917 292.022 176.077Z" fill="#313131"/>
<path d="M299.969 176.077C300.011 175.684 299.982 175.285 299.884 174.907C299.786 174.529 299.621 174.181 299.401 173.887C299.181 173.592 298.91 173.358 298.608 173.201C298.306 173.044 297.979 172.967 297.65 172.976C296.944 172.994 296.267 173.317 295.743 173.887C295.22 174.457 294.885 175.234 294.8 176.077C294.758 176.468 294.787 176.865 294.884 177.242C294.982 177.618 295.146 177.965 295.365 178.258C295.584 178.552 295.853 178.784 296.154 178.941C296.455 179.098 296.781 179.174 297.109 179.166C297.814 179.148 298.491 178.827 299.016 178.26C299.541 177.693 299.879 176.918 299.969 176.077Z" fill="#313131"/>
<path d="M307.901 176.077C307.943 175.684 307.914 175.285 307.816 174.907C307.718 174.529 307.553 174.181 307.333 173.887C307.113 173.592 306.842 173.358 306.54 173.201C306.238 173.044 305.911 172.967 305.582 172.976C304.876 172.994 304.199 173.317 303.676 173.887C303.152 174.457 302.817 175.234 302.732 176.077C302.692 176.469 302.722 176.866 302.821 177.243C302.92 177.619 303.085 177.966 303.305 178.259C303.525 178.552 303.794 178.784 304.096 178.941C304.397 179.097 304.723 179.174 305.051 179.166C305.756 179.148 306.431 178.826 306.955 178.259C307.478 177.692 307.814 176.917 307.901 176.077Z" fill="#313131"/>
<path d="M315.838 176.077C315.881 175.685 315.854 175.286 315.757 174.908C315.66 174.53 315.497 174.182 315.277 173.887C315.058 173.592 314.788 173.358 314.486 173.201C314.184 173.043 313.858 172.967 313.529 172.976C312.823 172.993 312.146 173.317 311.623 173.887C311.099 174.456 310.764 175.234 310.679 176.077C310.636 176.473 310.666 176.875 310.767 177.256C310.867 177.636 311.036 177.985 311.261 178.279C311.486 178.572 311.762 178.803 312.07 178.954C312.377 179.105 312.708 179.173 313.04 179.153C313.734 179.121 314.396 178.795 314.908 178.231C315.42 177.668 315.75 176.905 315.838 176.077Z" fill="#313131"/>
<path d="M323.938 176.077C323.98 175.684 323.951 175.285 323.853 174.907C323.754 174.529 323.59 174.181 323.37 173.887C323.149 173.592 322.879 173.358 322.577 173.201C322.274 173.044 321.948 172.967 321.618 172.976C320.912 172.994 320.236 173.317 319.712 173.887C319.189 174.457 318.854 175.234 318.769 176.077C318.727 176.468 318.755 176.865 318.853 177.242C318.95 177.618 319.114 177.965 319.334 178.258C319.553 178.552 319.822 178.784 320.123 178.941C320.424 179.098 320.75 179.174 321.078 179.166C321.783 179.148 322.46 178.827 322.985 178.26C323.51 177.693 323.848 176.918 323.938 176.077Z" fill="#313131"/>
<path d="M294.62 149.642C294.664 149.251 294.636 148.852 294.54 148.475C294.443 148.098 294.279 147.75 294.059 147.456C293.84 147.163 293.57 146.93 293.268 146.774C292.966 146.618 292.64 146.543 292.311 146.554C291.607 146.571 290.931 146.893 290.408 147.46C289.885 148.027 289.549 148.802 289.462 149.642C289.418 150.034 289.445 150.432 289.542 150.809C289.639 151.187 289.803 151.534 290.022 151.828C290.242 152.122 290.512 152.355 290.814 152.511C291.116 152.666 291.442 152.742 291.77 152.731C292.475 152.716 293.152 152.395 293.676 151.827C294.2 151.26 294.535 150.484 294.62 149.642Z" fill="#313131"/>
<path d="M302.568 149.642C302.608 149.25 302.578 148.853 302.479 148.476C302.38 148.1 302.215 147.753 301.995 147.46C301.775 147.167 301.506 146.935 301.204 146.778C300.903 146.622 300.577 146.545 300.249 146.554C299.552 146.583 298.886 146.91 298.371 147.476C297.857 148.042 297.527 148.81 297.441 149.642C297.399 150.033 297.427 150.431 297.525 150.807C297.622 151.184 297.786 151.53 298.006 151.824C298.225 152.117 298.494 152.35 298.795 152.506C299.096 152.663 299.422 152.74 299.749 152.731C300.448 152.705 301.116 152.379 301.633 151.812C302.15 151.246 302.481 150.476 302.568 149.642Z" fill="#313131"/>
<path d="M310.504 149.642C310.546 149.251 310.517 148.854 310.42 148.477C310.322 148.101 310.158 147.754 309.939 147.461C309.72 147.167 309.451 146.934 309.15 146.778C308.849 146.621 308.523 146.545 308.195 146.553C307.49 146.571 306.813 146.892 306.288 147.459C305.763 148.026 305.425 148.8 305.335 149.642C305.293 150.034 305.322 150.433 305.42 150.81C305.518 151.187 305.683 151.535 305.903 151.828C306.124 152.122 306.394 152.354 306.697 152.51C306.999 152.666 307.326 152.741 307.654 152.731C308.359 152.716 309.036 152.395 309.56 151.827C310.083 151.26 310.419 150.484 310.504 149.642Z" fill="#313131"/>
<path d="M318.436 149.642C318.48 149.251 318.453 148.852 318.356 148.475C318.259 148.098 318.095 147.75 317.876 147.456C317.656 147.163 317.386 146.93 317.084 146.774C316.782 146.618 316.456 146.543 316.128 146.554C315.423 146.571 314.748 146.893 314.225 147.46C313.701 148.027 313.365 148.802 313.278 149.642C313.234 150.034 313.262 150.432 313.359 150.809C313.455 151.187 313.619 151.534 313.839 151.828C314.058 152.122 314.328 152.355 314.63 152.511C314.932 152.666 315.259 152.742 315.587 152.731C316.292 152.716 316.969 152.395 317.492 151.827C318.016 151.26 318.351 150.484 318.436 149.642Z" fill="#313131"/>
<path d="M326.383 149.642C326.423 149.25 326.393 148.853 326.294 148.476C326.196 148.1 326.031 147.753 325.811 147.46C325.591 147.167 325.321 146.935 325.019 146.778C324.718 146.622 324.392 146.545 324.064 146.554C323.359 146.571 322.684 146.893 322.161 147.46C321.637 148.027 321.301 148.802 321.214 149.642C321.172 150.034 321.201 150.433 321.299 150.81C321.397 151.188 321.562 151.535 321.782 151.828C322.003 152.122 322.273 152.355 322.576 152.51C322.878 152.666 323.205 152.741 323.533 152.731C324.238 152.716 324.915 152.395 325.439 151.827C325.962 151.26 326.298 150.484 326.383 149.642Z" fill="#313131"/>
<path d="M334.317 149.642C334.359 149.251 334.33 148.854 334.232 148.477C334.135 148.101 333.971 147.754 333.752 147.461C333.532 147.167 333.263 146.934 332.962 146.778C332.661 146.621 332.336 146.545 332.008 146.553C331.302 146.571 330.625 146.892 330.1 147.459C329.575 148.026 329.237 148.8 329.148 149.642C329.106 150.034 329.135 150.433 329.233 150.81C329.331 151.187 329.496 151.535 329.716 151.828C329.936 152.122 330.207 152.354 330.509 152.51C330.811 152.666 331.138 152.741 331.467 152.731C332.172 152.716 332.849 152.395 333.372 151.827C333.896 151.26 334.231 150.484 334.317 149.642Z" fill="#313131"/>
<path d="M327.6 112.516L327.039 118.931C326.999 119.21 326.882 119.465 326.706 119.653C326.53 119.842 326.307 119.953 326.071 119.969C325.961 119.974 325.85 119.949 325.748 119.898C325.646 119.846 325.554 119.768 325.48 119.669C325.406 119.57 325.35 119.452 325.318 119.325C325.285 119.197 325.276 119.063 325.291 118.931L325.853 112.516C325.902 112.041 325.866 111.559 325.747 111.102C325.627 110.646 325.428 110.225 325.162 109.869C324.895 109.514 324.568 109.231 324.203 109.04C323.838 108.85 323.443 108.756 323.045 108.765H321.121C320.266 108.789 319.447 109.181 318.812 109.869C318.176 110.557 317.767 111.496 317.658 112.516L317.169 118.468H315.422L315.911 112.516C316.076 110.925 316.712 109.458 317.704 108.386C318.695 107.313 319.975 106.706 321.308 106.676H323.222C323.843 106.658 324.46 106.801 325.031 107.096C325.601 107.391 326.112 107.831 326.528 108.385C326.944 108.94 327.255 109.597 327.44 110.31C327.625 111.023 327.68 111.775 327.6 112.516Z" fill="#313131"/>
<path d="M327.601 118.693L326.509 131.198C326.467 131.586 326.311 131.943 326.068 132.205C325.826 132.466 325.514 132.615 325.189 132.623H314.789C314.639 132.625 314.491 132.588 314.354 132.515C314.217 132.441 314.095 132.333 313.996 132.198C313.898 132.062 313.824 131.903 313.782 131.73C313.739 131.558 313.728 131.376 313.749 131.198L314.841 118.693C314.861 118.436 314.932 118.189 315.048 117.971C315.163 117.754 315.321 117.573 315.506 117.443C315.705 117.303 315.931 117.23 316.161 117.23H326.561C326.774 117.228 326.983 117.297 327.165 117.43C327.331 117.567 327.462 117.759 327.539 117.984C327.617 118.208 327.638 118.455 327.601 118.693Z" fill="#313131"/>
<path d="M409.043 91.7585L383.625 91.9336" stroke="#313131" stroke-linecap="round" stroke-linejoin="round"/>
<path d="M422.896 91.6709L413.91 91.7209" stroke="#313131" stroke-linecap="round" stroke-linejoin="round"/>
<g opacity="0.3">
<path d="M244.503 98.4236H273.623L244.014 245.765H220.541C219.864 245.749 219.198 245.549 218.594 245.18C217.99 244.811 217.464 244.283 217.054 243.634C216.644 242.986 216.361 242.235 216.226 241.437C216.092 240.638 216.109 239.814 216.277 239.025L244.503 98.4236Z" fill="white"/>
<path d="M286.519 98.4236H298.864L269.286 245.765H256.941L286.519 98.4236Z" fill="white"/>
</g>
<path d="M90.1159 52.4317H96.0231C94.6392 52.4081 93.2666 52.7335 91.9937 53.3871C90.7209 54.0406 89.5762 55.0078 88.6335 56.2261C87.6907 57.4445 86.9709 58.887 86.5205 60.4605C86.07 62.034 85.8989 63.7035 86.0183 65.3614L98.5503 280.815C98.7879 284.304 100.098 287.561 102.224 289.951C104.351 292.342 107.142 293.694 110.053 293.745H104.156C101.244 293.694 98.4517 292.343 96.3234 289.952C94.1951 287.562 92.8831 284.305 92.6431 280.815L80.0799 65.3614C79.9602 63.7003 80.1321 62.0275 80.5844 60.4514C81.0367 58.8753 81.7594 57.431 82.7055 56.212C83.6516 54.9931 84.8002 54.0267 86.0767 53.3755C87.3533 52.7243 88.7294 52.4027 90.1159 52.4317Z" fill="#7FB036"/>
<path d="M90.1136 52.4316H96.0208C94.6369 52.4079 93.2643 52.7334 91.9914 53.387C90.7186 54.0405 89.5739 55.0077 88.6312 56.226C87.6884 57.4444 86.9686 58.8869 86.5182 60.4604C86.0677 62.0339 85.8966 63.7034 86.016 65.3613L98.548 280.815C98.7856 284.304 100.095 287.561 102.222 289.951C104.349 292.342 107.139 293.694 110.05 293.745H104.154C98.2152 293.745 92.2248 287.955 91.8088 280.815L79.2768 65.3613C78.8608 58.2212 84.1752 52.4316 90.1136 52.4316Z" fill="#313131"/>
<path d="M105.912 293.757H178.192C179.579 293.788 180.957 293.468 182.234 292.817C183.512 292.167 184.662 291.201 185.609 289.982C186.557 288.762 187.28 287.318 187.733 285.741C188.186 284.164 188.358 282.49 188.238 280.827L175.665 65.3614C175.43 61.8684 174.119 58.6064 171.99 56.213C169.861 53.8196 167.066 52.4669 164.152 52.4192H91.8824C90.4976 52.3953 89.124 52.7211 87.8504 53.3754C86.5768 54.0297 85.4316 54.998 84.4886 56.2178C83.5457 57.4375 82.8262 58.8816 82.3764 60.4566C81.9267 62.0316 81.7567 63.7025 81.8776 65.3614L94.3576 280.815C94.5959 284.315 95.9127 287.583 98.05 289.977C100.187 292.371 102.991 293.719 105.912 293.757Z" fill="#7FB036"/>
<g opacity="0.6">
<path d="M163.967 56.608C165.992 56.6465 167.932 57.5897 169.411 59.2539C170.889 60.9182 171.799 63.1844 171.964 65.6113L184.496 281.065C184.581 282.164 184.472 283.273 184.177 284.318C183.881 285.364 183.404 286.322 182.779 287.131C182.153 287.94 181.393 288.58 180.547 289.011C179.702 289.442 178.79 289.653 177.872 289.63H105.602C103.576 289.592 101.634 288.65 100.154 286.986C98.674 285.322 97.7615 283.055 97.5939 280.627L85.1139 65.1736C85.0293 64.0794 85.137 62.9761 85.4299 61.9351C85.7228 60.8942 86.1944 59.9389 86.8142 59.1312C87.4339 58.3236 88.188 57.6816 89.0274 57.2469C89.8668 56.8122 90.7729 56.5945 91.6867 56.608H163.967Z" fill="white"/>
</g>
<g opacity="0.3">
<path d="M143.52 289.605H114.723L138.497 56.608H161.699C162.701 56.6035 163.693 56.8477 164.613 57.3254C165.533 57.8031 166.361 58.5039 167.045 59.384L143.52 289.605Z" fill="white"/>
<path d="M109.552 289.605H103.062L126.837 56.583H133.326L109.552 289.605Z" fill="white"/>
</g>
<path d="M107.305 158.395H159.658" stroke="white" stroke-linecap="round" stroke-linejoin="round"/>
<path d="M114.055 167.711H155.062" stroke="white" stroke-linecap="round" stroke-linejoin="round"/>
<path d="M108.868 115.48L108.941 117.981H107.599L107.526 115.48L105.145 110.99H106.569L108.213 114.092L109.669 110.99H110.989L108.868 115.48Z" fill="#7FB036"/>
<path d="M111.038 114.454C111.02 113.963 111.09 113.472 111.242 113.015C111.394 112.559 111.626 112.146 111.921 111.806C112.216 111.465 112.568 111.204 112.954 111.039C113.34 110.875 113.75 110.811 114.158 110.853C114.57 110.828 114.983 110.901 115.371 111.069C115.76 111.237 116.117 111.496 116.421 111.831C116.726 112.166 116.973 112.57 117.146 113.02C117.32 113.471 117.418 113.958 117.434 114.454C117.453 114.947 117.385 115.439 117.233 115.897C117.081 116.355 116.85 116.769 116.555 117.111C116.259 117.453 115.907 117.715 115.52 117.88C115.134 118.046 114.723 118.109 114.314 118.068C113.901 118.093 113.487 118.019 113.098 117.851C112.709 117.682 112.352 117.422 112.047 117.086C111.742 116.749 111.496 116.343 111.322 115.892C111.149 115.44 111.052 114.951 111.038 114.454ZM116.03 114.454C116.031 114.158 115.983 113.865 115.889 113.592C115.794 113.318 115.655 113.07 115.48 112.863C115.304 112.655 115.096 112.492 114.867 112.383C114.638 112.274 114.394 112.222 114.147 112.228C113.906 112.216 113.666 112.266 113.442 112.376C113.219 112.485 113.017 112.651 112.851 112.862C112.686 113.073 112.56 113.324 112.482 113.599C112.404 113.874 112.376 114.165 112.4 114.454C112.397 114.751 112.444 115.046 112.538 115.321C112.632 115.595 112.771 115.845 112.947 116.053C113.122 116.262 113.331 116.426 113.561 116.536C113.79 116.646 114.036 116.699 114.283 116.692C114.524 116.701 114.764 116.647 114.987 116.536C115.209 116.425 115.41 116.258 115.575 116.046C115.74 115.834 115.866 115.583 115.945 115.309C116.023 115.034 116.052 114.743 116.03 114.454Z" fill="#7FB036"/>
<path d="M118.362 114.879L118.258 110.965H119.599L119.703 114.817C119.703 116.142 120.244 116.692 121.055 116.692C121.867 116.692 122.324 116.142 122.293 114.817L122.179 110.965H123.499L123.614 114.879C123.668 115.3 123.642 115.73 123.536 116.136C123.43 116.543 123.248 116.915 123.004 117.223C122.76 117.531 122.46 117.768 122.127 117.914C121.795 118.061 121.439 118.113 121.087 118.068C120.727 118.107 120.365 118.051 120.024 117.906C119.684 117.761 119.374 117.529 119.115 117.226C118.856 116.923 118.655 116.557 118.525 116.152C118.395 115.747 118.339 115.313 118.362 114.879Z" fill="#7FB036"/>
<path d="M128.732 117.955L127.557 116.005H126.319L126.382 117.955H125.04L124.832 110.965H127.349C128.898 110.965 129.897 111.941 129.938 113.466C129.972 113.931 129.88 114.396 129.676 114.793C129.471 115.19 129.166 115.496 128.805 115.667L130.178 117.918L128.732 117.955ZM127.307 112.291H126.267L126.34 114.717H127.38C128.202 114.717 128.597 114.267 128.576 113.466C128.555 112.666 128.129 112.291 127.307 112.291Z" fill="#7FB036"/>
<path d="M133.016 114.454C132.994 113.97 133.058 113.486 133.204 113.034C133.35 112.582 133.573 112.172 133.86 111.832C134.147 111.492 134.491 111.228 134.869 111.06C135.247 110.891 135.65 110.82 136.053 110.853C136.508 110.836 136.961 110.939 137.379 111.155C137.798 111.371 138.172 111.695 138.476 112.103L137.644 113.054C137.46 112.797 137.231 112.591 136.975 112.45C136.718 112.31 136.439 112.239 136.157 112.241C135.913 112.226 135.669 112.273 135.442 112.381C135.215 112.488 135.01 112.653 134.84 112.864C134.671 113.075 134.541 113.327 134.459 113.604C134.378 113.88 134.347 114.174 134.368 114.467C134.366 114.768 134.415 115.066 134.512 115.343C134.609 115.621 134.752 115.871 134.932 116.081C135.112 116.29 135.325 116.453 135.559 116.56C135.792 116.668 136.042 116.717 136.292 116.705C136.568 116.712 136.842 116.641 137.091 116.497C137.34 116.354 137.558 116.143 137.727 115.88L138.611 116.83C138.328 117.245 137.968 117.575 137.56 117.792C137.151 118.009 136.706 118.108 136.261 118.081C135.849 118.101 135.438 118.023 135.052 117.851C134.666 117.679 134.312 117.417 134.01 117.08C133.708 116.743 133.465 116.337 133.295 115.887C133.124 115.436 133.029 114.949 133.016 114.454Z" fill="#7FB036"/>
<path d="M138.963 114.454C138.947 113.968 139.015 113.484 139.164 113.032C139.313 112.58 139.54 112.17 139.829 111.831C140.119 111.491 140.464 111.228 140.844 111.06C141.223 110.891 141.628 110.821 142.031 110.853C142.444 110.828 142.856 110.901 143.245 111.069C143.633 111.237 143.99 111.496 144.295 111.831C144.6 112.166 144.846 112.57 145.02 113.021C145.194 113.471 145.291 113.958 145.307 114.454C145.326 114.941 145.259 115.427 145.11 115.881C144.962 116.334 144.735 116.745 144.446 117.086C144.156 117.427 143.81 117.691 143.43 117.86C143.05 118.029 142.644 118.1 142.239 118.068C141.826 118.093 141.413 118.019 141.024 117.851C140.635 117.682 140.277 117.422 139.972 117.086C139.667 116.749 139.421 116.344 139.248 115.892C139.075 115.44 138.978 114.951 138.963 114.454ZM143.945 114.454C143.948 114.159 143.901 113.866 143.808 113.593C143.715 113.319 143.577 113.072 143.402 112.864C143.227 112.656 143.019 112.493 142.791 112.384C142.563 112.275 142.319 112.222 142.073 112.228C141.832 112.216 141.591 112.267 141.368 112.376C141.144 112.485 140.943 112.651 140.777 112.862C140.611 113.073 140.485 113.324 140.407 113.599C140.33 113.874 140.302 114.166 140.326 114.454C140.322 114.751 140.367 115.045 140.46 115.32C140.553 115.595 140.69 115.844 140.865 116.053C141.04 116.262 141.248 116.426 141.477 116.536C141.706 116.646 141.951 116.699 142.198 116.693C142.44 116.703 142.68 116.651 142.904 116.54C143.127 116.43 143.329 116.263 143.494 116.051C143.66 115.839 143.786 115.586 143.863 115.311C143.941 115.036 143.969 114.744 143.945 114.454Z" fill="#7FB036"/>
<path d="M146.223 110.965H148.854C149.264 110.917 149.677 110.971 150.069 111.123C150.461 111.275 150.823 111.522 151.132 111.849C151.441 112.176 151.691 112.576 151.866 113.025C152.042 113.473 152.138 113.959 152.151 114.454C152.174 114.943 152.107 115.432 151.955 115.886C151.804 116.341 151.571 116.75 151.273 117.084C150.975 117.418 150.62 117.669 150.233 117.82C149.845 117.97 149.435 118.017 149.031 117.955H146.389L146.223 110.965ZM148.958 116.63C149.203 116.661 149.451 116.626 149.684 116.528C149.917 116.43 150.128 116.271 150.304 116.063C150.48 115.855 150.616 115.603 150.701 115.325C150.787 115.047 150.82 114.75 150.799 114.454C150.798 114.153 150.746 113.855 150.644 113.58C150.543 113.304 150.396 113.057 150.211 112.854C150.026 112.65 149.808 112.495 149.571 112.398C149.334 112.302 149.083 112.265 148.833 112.291H147.606L147.731 116.63H148.958Z" fill="#7FB036"/>
<path d="M157.724 116.63V117.88H153.231L153.023 110.89H157.412V112.141H154.438V113.654H157.131V114.904H154.438V116.517L157.724 116.63Z" fill="#7FB036"/>
<path d="M118.954 143.902V146.703H108.044V144.49L113.848 137.75C115.262 136.087 115.501 135.049 115.491 133.999C115.491 132.373 114.513 131.423 112.693 131.423C112.036 131.383 111.381 131.531 110.78 131.855C110.18 132.179 109.652 132.669 109.24 133.286L107.285 131.498C107.957 130.509 108.815 129.726 109.788 129.213C110.76 128.7 111.82 128.472 112.88 128.547C116.104 128.547 118.216 130.51 118.257 133.674C118.257 135.399 117.904 136.987 115.886 139.313L111.986 143.852L118.954 143.902Z" fill="#313131"/>
<path d="M131.038 141.351C131.038 144.353 129.228 146.953 125.245 146.953C123.239 146.996 121.273 146.274 119.629 144.89L120.783 142.314C122.036 143.477 123.579 144.098 125.162 144.077C127.127 144.077 128.282 143.027 128.282 141.376C128.282 139.726 127.242 138.713 125.016 138.713H123.664V136.45L126.878 131.635H120.128V128.859H130.258V131.085L126.722 136.237C129.561 136.637 131.038 138.663 131.038 141.351Z" fill="#313131"/>
<path d="M144.913 141.639C144.913 144.953 142.594 147.016 138.902 147.016C135.21 147.016 132.818 144.953 132.777 141.639C132.745 140.728 132.951 139.828 133.365 139.064C133.778 138.3 134.38 137.709 135.085 137.375C134.51 137.024 134.026 136.487 133.69 135.825C133.354 135.162 133.178 134.4 133.182 133.624C133.182 130.56 135.345 128.622 138.632 128.622C141.918 128.622 144.217 130.535 144.258 133.624C144.29 134.395 144.134 135.162 143.809 135.828C143.484 136.495 143.004 137.032 142.428 137.375C143.151 137.702 143.775 138.284 144.219 139.045C144.662 139.806 144.904 140.71 144.913 141.639ZM142.126 141.539C142.126 139.776 140.816 138.676 138.777 138.676C136.739 138.676 135.522 139.776 135.553 141.539C135.585 143.302 136.822 144.415 138.861 144.415C140.899 144.415 142.157 143.29 142.126 141.477V141.539ZM135.886 133.786C135.886 135.312 136.926 136.287 138.725 136.287C140.525 136.287 141.554 135.312 141.523 133.786C141.492 132.261 140.348 131.285 138.642 131.285C136.937 131.285 135.886 132.111 135.907 133.724L135.886 133.786Z" fill="#313131"/>
<path d="M158.745 141.639C158.745 144.953 156.426 147.016 152.734 147.016C149.042 147.016 146.64 144.89 146.64 141.639C146.61 140.728 146.816 139.829 147.23 139.065C147.643 138.302 148.244 137.711 148.948 137.375C148.372 137.026 147.889 136.489 147.554 135.826C147.22 135.162 147.047 134.399 147.056 133.624C147.004 130.56 149.208 128.622 152.495 128.622C155.781 128.622 158.08 130.535 158.121 133.624C158.153 134.395 157.997 135.162 157.672 135.828C157.347 136.495 156.867 137.032 156.291 137.375C157.008 137.708 157.626 138.293 158.063 139.053C158.501 139.814 158.738 140.714 158.745 141.639ZM155.958 141.539C155.958 139.776 154.648 138.676 152.609 138.676C150.571 138.676 149.354 139.776 149.385 141.539C149.416 143.302 150.654 144.415 152.692 144.415C154.731 144.415 156 143.29 156 141.477L155.958 141.539ZM149.718 133.786C149.718 135.312 150.81 136.287 152.557 136.287C154.304 136.287 155.386 135.312 155.365 133.786C155.344 132.261 154.18 131.285 152.484 131.285C150.789 131.285 149.76 132.111 149.76 133.724L149.718 133.786Z" fill="#313131"/>
<path d="M79.7891 83.668L81.6299 113.891" stroke="#7FB036" stroke-linecap="round" stroke-linejoin="round"/>
<path d="M78.9453 69.8879L79.4341 77.8658" stroke="#7FB036" stroke-linecap="round" stroke-linejoin="round"/>
<path d="M128.305 39.8395V21.4453" stroke="#7FB036" stroke-linecap="round" stroke-linejoin="round"/>
<path d="M116.187 43.7409L108.543 27.8101" stroke="#7FB036" stroke-linecap="round" stroke-linejoin="round"/>
<path d="M148.062 27.8101L140.418 43.7409" stroke="#7FB036" stroke-linecap="round" stroke-linejoin="round"/>
<path d="M326.445 366.421C321.19 391.79 319.063 417.95 320.132 444.062" stroke="#A3A3A3" stroke-miterlimit="10"/>
<path d="M321.591 365.346C321.591 367.671 323.38 375.937 325.325 375.874C327.269 375.812 328.673 367.471 328.621 365.133C328.61 364.578 328.507 364.031 328.32 363.524C328.133 363.016 327.864 362.558 327.529 362.176C327.195 361.793 326.801 361.493 326.37 361.294C325.939 361.094 325.479 360.999 325.018 361.013C324.556 361.027 324.101 361.15 323.679 361.375C323.257 361.601 322.876 361.924 322.558 362.326C322.24 362.728 321.991 363.202 321.825 363.72C321.659 364.238 321.579 364.791 321.591 365.346Z" fill="#A3A3A3"/>
<path d="M329.148 391.593C329.148 389.254 327.36 381.001 325.425 381.051C323.491 381.101 322.076 389.454 322.118 391.793C322.129 392.348 322.231 392.895 322.418 393.402C322.604 393.91 322.872 394.369 323.206 394.752C323.541 395.135 323.934 395.435 324.365 395.636C324.796 395.836 325.255 395.932 325.716 395.919C326.178 395.906 326.633 395.784 327.055 395.559C327.478 395.335 327.859 395.012 328.178 394.611C328.496 394.209 328.746 393.735 328.913 393.218C329.079 392.7 329.159 392.148 329.148 391.593Z" fill="#A3A3A3"/>
<path d="M314.455 382.977C316.4 382.977 323.264 380.826 323.212 378.488C323.16 376.15 316.233 374.461 314.288 374.524C313.827 374.537 313.372 374.659 312.95 374.884C312.527 375.108 312.146 375.431 311.827 375.833C311.509 376.234 311.259 376.708 311.092 377.225C310.926 377.743 310.846 378.295 310.856 378.851C310.867 379.406 310.969 379.953 311.156 380.46C311.343 380.968 311.611 381.427 311.945 381.81C312.279 382.193 312.673 382.493 313.103 382.694C313.534 382.894 313.993 382.99 314.455 382.977Z" fill="#A3A3A3"/>
<path d="M336.284 373.924C334.35 373.924 327.476 376.074 327.528 378.4C327.58 380.726 334.516 382.427 336.461 382.377C336.923 382.363 337.378 382.24 337.8 382.014C338.222 381.789 338.603 381.466 338.921 381.064C339.239 380.661 339.488 380.188 339.654 379.669C339.82 379.151 339.9 378.599 339.888 378.044C339.876 377.489 339.774 376.942 339.587 376.435C339.399 375.927 339.131 375.469 338.796 375.086C338.461 374.704 338.067 374.404 337.636 374.205C337.205 374.005 336.746 373.91 336.284 373.924Z" fill="#A3A3A3"/>
<path d="M314.974 372.398C316.389 374.011 322.473 378.375 323.814 376.675C325.156 374.974 321.235 367.922 319.831 366.284C319.157 365.509 318.254 365.089 317.322 365.114C316.39 365.14 315.504 365.61 314.86 366.421C314.216 367.232 313.866 368.317 313.888 369.438C313.909 370.559 314.3 371.624 314.974 372.398Z" fill="#A3A3A3"/>
<path d="M335.766 384.528C334.362 382.915 328.278 378.563 326.936 380.251C325.595 381.939 329.505 389.004 330.909 390.655C331.244 391.038 331.638 391.339 332.069 391.539C332.5 391.739 332.96 391.836 333.422 391.822C333.884 391.809 334.339 391.686 334.762 391.461C335.185 391.236 335.567 390.913 335.885 390.511C336.204 390.109 336.454 389.635 336.621 389.116C336.787 388.598 336.867 388.045 336.856 387.49C336.845 386.934 336.743 386.386 336.556 385.878C336.369 385.37 336.1 384.911 335.766 384.528Z" fill="#A3A3A3"/>
<path d="M320.322 390.967C321.663 389.267 325.283 381.952 323.879 380.339C322.475 378.725 316.599 383.44 315.226 385.128C314.582 385.94 314.232 387.027 314.255 388.149C314.277 389.271 314.67 390.337 315.345 391.111C316.021 391.886 316.925 392.305 317.858 392.279C318.792 392.252 319.678 391.78 320.322 390.967Z" fill="#A3A3A3"/>
<path d="M330.417 365.971C329.076 367.659 325.446 374.974 326.861 376.587C328.275 378.2 334.141 373.499 335.503 371.811C335.822 371.409 336.072 370.936 336.239 370.418C336.406 369.901 336.486 369.348 336.475 368.793C336.465 368.238 336.363 367.691 336.177 367.183C335.99 366.676 335.723 366.217 335.389 365.833C335.055 365.45 334.661 365.149 334.231 364.949C333.8 364.748 333.341 364.651 332.879 364.664C332.418 364.677 331.963 364.799 331.54 365.023C331.118 365.247 330.736 365.569 330.417 365.971Z" fill="#A3A3A3"/>
<path d="M321.204 378.588C321.225 379.576 321.489 380.535 321.963 381.343C322.436 382.151 323.099 382.772 323.866 383.128C324.633 383.484 325.47 383.559 326.273 383.343C327.075 383.126 327.806 382.629 328.374 381.914C328.941 381.198 329.319 380.297 329.461 379.323C329.603 378.349 329.501 377.347 329.169 376.442C328.837 375.538 328.289 374.772 327.596 374.241C326.902 373.711 326.093 373.439 325.271 373.461C324.724 373.476 324.184 373.62 323.683 373.886C323.183 374.152 322.73 374.534 322.353 375.01C321.975 375.486 321.679 376.047 321.482 376.661C321.285 377.275 321.191 377.93 321.204 378.588Z" fill="white"/>
<path d="M320.613 415.801C320.613 415.801 321.331 403.034 327.165 401.021C333 399.008 335.132 396.257 335.132 396.257C335.132 396.257 334.539 416.052 320.613 415.801Z" fill="#A3A3A3"/>
<path opacity="0.5" d="M320.613 415.801C320.613 415.801 321.331 403.034 327.165 401.021C333 399.008 335.132 396.257 335.132 396.257C335.132 396.257 334.539 416.052 320.613 415.801Z" fill="white"/>
<path d="M319.843 425.58C319.843 425.58 319.125 412.813 313.291 410.787C307.456 408.761 305.324 406.035 305.324 406.035C305.324 406.035 305.917 425.83 319.843 425.58Z" fill="#A3A3A3"/>
<path opacity="0.5" d="M319.843 425.58C319.843 425.58 319.125 412.813 313.291 410.787C307.456 408.761 305.324 406.035 305.324 406.035C305.324 406.035 305.917 425.83 319.843 425.58Z" fill="white"/>
<path d="M341.849 452.177C341.849 462.181 331.979 470.209 319.811 470.209C307.643 470.209 297.773 462.143 297.773 452.177C297.773 447.175 300.301 442.574 304.388 439.31C306.963 437.29 309.826 435.858 312.833 435.083H326.789C329.874 435.881 332.806 437.37 335.432 439.473C339.405 442.736 341.849 447.213 341.849 452.177Z" fill="#A3A3A3"/>
<path opacity="0.8" d="M326.789 435.083C329.874 435.881 332.806 437.37 335.432 439.473C339.405 442.736 341.849 447.213 341.849 452.177C341.849 462.181 331.979 470.209 319.811 470.209C307.643 470.209 297.773 462.143 297.773 452.177C297.773 447.175 300.301 442.574 304.388 439.31C306.963 437.29 309.826 435.858 312.833 435.083H326.789Z" fill="white"/>
<path d="M319.875 436.747V445.662" stroke="#A3A3A3" stroke-miterlimit="10"/>
<path d="M336.399 434.809L335.234 439.185L335.213 439.235H304.398L304.335 438.998L303.223 434.809H336.399Z" fill="#A3A3A3"/>
<path d="M339.251 455.804C337.042 459.483 334.142 462.483 330.785 464.557C325.491 467.933 303.225 468.796 300.677 453.615C300.677 453.403 300.583 453.19 300.552 452.978C300.441 452.038 300.509 451.079 300.751 450.176C300.993 449.272 301.404 448.446 301.951 447.762C302.498 447.077 303.168 446.552 303.91 446.225C304.651 445.898 305.445 445.778 306.231 445.875C308.341 446.046 310.462 445.903 312.543 445.45C320.538 443.994 328.695 444.517 336.515 446.988C337.256 447.224 337.939 447.67 338.507 448.289C339.075 448.908 339.511 449.682 339.779 450.545C340.047 451.409 340.139 452.337 340.047 453.252C339.955 454.167 339.682 455.042 339.251 455.804Z" fill="#313131"/>
<path d="M179.412 450.752C179.607 450.66 179.779 450.512 179.914 450.32C180.048 450.127 180.14 449.898 180.182 449.651C180.221 449.503 180.227 449.344 180.198 449.192C180.168 449.04 180.105 448.901 180.015 448.789C179.214 447.788 175.959 448.501 175.595 448.588C175.553 448.593 175.513 448.613 175.481 448.647C175.449 448.681 175.427 448.726 175.418 448.776C175.41 448.825 175.414 448.875 175.428 448.922C175.443 448.968 175.469 449.009 175.502 449.039C176.151 449.609 176.848 450.095 177.582 450.489C178.147 450.832 178.795 450.925 179.412 450.752ZM179.703 449.139C179.742 449.191 179.768 449.254 179.779 449.322C179.79 449.39 179.785 449.461 179.766 449.526C179.742 449.69 179.683 449.844 179.596 449.973C179.509 450.102 179.395 450.203 179.266 450.264C178.674 450.527 177.54 450.039 176.146 449.014C177.498 448.739 179.277 448.601 179.703 449.139Z" fill="#A3A3A3"/>
<path d="M175.658 449.089C176.698 448.939 178.944 447.526 179.142 446.3C179.176 446.1 179.152 445.892 179.072 445.711C178.992 445.531 178.862 445.39 178.705 445.312C178.558 445.215 178.396 445.157 178.229 445.142C178.062 445.127 177.895 445.155 177.738 445.225C176.49 445.737 175.471 448.613 175.429 448.738C175.414 448.778 175.406 448.82 175.406 448.864C175.406 448.907 175.414 448.949 175.429 448.989C175.453 449.027 175.485 449.057 175.523 449.076L175.658 449.089ZM178.487 445.762C178.736 445.925 178.747 446.087 178.726 446.2C178.601 446.95 177.072 448.113 176.001 448.476C176.386 447.538 177.135 445.975 177.883 445.7C178.05 445.618 178.237 445.618 178.403 445.7L178.487 445.762Z" fill="#A3A3A3"/>
<path d="M165.789 444.049L174.255 448.163L181.649 424.642L173.173 420.528L165.789 444.049Z" fill="#FFB573"/>
<path d="M175.324 447.325L165.819 442.711C165.657 442.626 165.474 442.615 165.306 442.679C165.138 442.744 164.995 442.879 164.903 443.061L160.743 451.439C160.645 451.655 160.586 451.893 160.571 452.138C160.555 452.383 160.583 452.629 160.653 452.86C160.723 453.091 160.833 453.301 160.976 453.476C161.119 453.652 161.291 453.789 161.482 453.878C164.831 455.428 166.505 455.966 170.686 458.004C173.265 459.255 176.926 461.393 180.462 463.131C183.998 464.869 185.662 460.793 184.299 459.692C178.257 454.778 178.059 451.94 176.551 448.638C176.283 448.042 175.848 447.577 175.324 447.325Z" fill="#313131"/>
<path d="M181.534 436.184L166.828 429.031L168.18 422.554L183.957 429.494L181.534 436.184Z" fill="#A3A3A3"/>
<path d="M196.261 163.935C193.276 174.326 184.447 198.785 177.635 188.594C176.409 186.794 175.407 184.788 174.66 182.642C171.78 174.076 171.062 160.196 170.698 157.157L168.379 147.641C168.338 147.479 168.317 147.311 168.316 147.141V141.702C168.316 139.501 169.793 138.188 171.79 138.388C171.79 138.388 175.014 137.938 175.014 140.251L175.638 148.417C175.96 151.255 175.024 155.207 175.576 157.807C177.656 167.599 180.516 168.049 182.315 178.152C184.821 170.862 189.304 158.245 189.304 158.245C192.278 158.695 197.239 160.521 196.261 163.935Z" fill="#FFB573"/>
<path d="M185.587 192.32C185.119 193.197 184.481 193.925 183.728 194.441C182.974 194.956 182.128 195.244 181.262 195.28C180.396 195.315 179.535 195.098 178.754 194.645C177.973 194.193 177.295 193.52 176.778 192.683C175.546 190.713 174.577 188.523 173.908 186.193C171.204 175.527 169.53 168.924 169.301 157.783C170.259 156.618 171.47 155.801 172.795 155.423C174.121 155.045 175.508 155.121 176.799 155.644L181.23 173.688C181.23 173.688 190.246 146.741 193.897 145.778C198.192 144.64 199.981 149.254 201.801 154.932C203.111 159.008 191.463 181.429 185.587 192.32Z" fill="#A3A3A3"/>
<path d="M222.018 118.806C220.978 125.058 218.711 138.713 222.351 142.889C222.351 142.889 220.926 149.229 211.265 149.229C200.626 149.229 206.179 142.889 206.179 142.889C211.982 141.226 211.826 136.049 210.818 131.185L222.018 118.806Z" fill="#FFB573"/>
<path d="M205.767 104.125C205.829 104.137 205.892 104.137 205.954 104.125C206.05 104.062 206.122 103.956 206.155 103.83C206.188 103.705 206.179 103.568 206.131 103.45C205.853 102.732 205.434 102.105 204.911 101.624C204.387 101.143 203.775 100.821 203.125 100.687C203.071 100.678 203.016 100.682 202.963 100.7C202.911 100.717 202.862 100.748 202.819 100.788C202.776 100.829 202.741 100.88 202.715 100.938C202.689 100.996 202.673 101.059 202.668 101.124C202.66 101.189 202.664 101.256 202.679 101.319C202.693 101.382 202.718 101.441 202.752 101.493C202.786 101.544 202.829 101.587 202.877 101.618C202.925 101.649 202.977 101.668 203.032 101.675C203.544 101.795 204.024 102.059 204.435 102.446C204.845 102.833 205.173 103.331 205.392 103.9C205.433 103.974 205.489 104.034 205.554 104.074C205.62 104.113 205.693 104.131 205.767 104.125Z" fill="#313131"/>
<path d="M202.593 109.527C201.77 111.356 200.741 113.039 199.535 114.529C199.862 114.889 200.249 115.159 200.671 115.321C201.093 115.483 201.54 115.533 201.979 115.467L202.593 109.527Z" fill="#ED893E"/>
<path d="M203.425 107.702C203.581 108.527 203.332 109.302 202.885 109.415C202.437 109.527 201.938 108.952 201.793 108.164C201.647 107.377 201.886 106.564 202.344 106.439C202.801 106.314 203.28 106.864 203.425 107.702Z" fill="#313131"/>
<path d="M202.553 106.401L200.785 106.251C200.785 106.251 201.919 107.589 202.553 106.401Z" fill="#313131"/>
<path opacity="0.2" d="M195.886 158.608C197.727 156.57 199.006 157.182 199.817 158.795C200.659 163.472 195.657 173.276 193.691 176.99L195.886 158.608Z" fill="black"/>
<path d="M238.472 164.773C238.233 169.924 237.828 176.414 237.172 184.58C236.486 193.195 235.508 203.662 234.167 216.379C220.033 216.379 205.234 216.116 198.36 216.116C198.942 199.223 199.15 182.104 192.848 148.492C192.769 148.075 192.76 147.643 192.823 147.223C192.885 146.802 193.017 146.401 193.211 146.042C193.405 145.684 193.657 145.377 193.952 145.138C194.247 144.899 194.579 144.734 194.928 144.653C199.036 143.757 203.187 143.168 207.356 142.89C212.739 142.426 218.144 142.426 223.528 142.89C230.464 143.652 238.348 145.591 238.348 145.591C238.348 145.591 239.2 148.692 238.472 164.773Z" fill="#A3A3A3"/>
<path opacity="0.2" d="M238.474 164.773C238.235 169.925 237.829 176.414 237.174 184.58C233.367 179.278 229.769 161.021 230.934 154.781C233.771 157.305 236.265 160.342 238.328 163.785C238.392 164.111 238.44 164.44 238.474 164.773Z" fill="black"/>
<path d="M275.173 187.656L282.453 182.754L283.805 191.67C283.805 191.67 277.669 194.508 274.445 192.52L275.173 187.656Z" fill="#FFB573"/>
<path d="M287.268 183.767L287.778 186.681C287.853 187.127 287.817 187.591 287.674 188.013C287.532 188.436 287.289 188.798 286.977 189.056L283.774 191.657L282.422 182.742L284.928 181.991C285.179 181.916 285.44 181.902 285.696 181.952C285.951 182.001 286.195 182.112 286.414 182.278C286.633 182.444 286.821 182.661 286.968 182.917C287.115 183.173 287.217 183.462 287.268 183.767Z" fill="#FFB573"/>
<path d="M231.504 155.919C233.823 161.596 242.33 183.042 246.064 187.994L246.802 188.919L247.166 189.382C247.291 189.532 247.395 189.669 247.593 189.882C248.264 190.648 249.003 191.323 249.798 191.895C251.216 192.88 252.742 193.621 254.332 194.096C257.119 194.873 259.98 195.197 262.839 195.059C268.166 194.803 273.444 193.727 278.543 191.857L277.68 186.656C275.278 186.906 272.761 187.081 270.327 187.131C267.915 187.216 265.502 187.124 263.099 186.856C260.871 186.663 258.671 186.147 256.547 185.318C255.689 184.971 254.876 184.478 254.134 183.854C253.85 183.614 253.588 183.338 253.354 183.029C253.272 182.927 253.196 182.818 253.126 182.704L252.855 182.316L252.304 181.541C249.434 177.215 241.852 156.357 239.574 151.143L231.504 155.919Z" fill="#FFB573"/>
<path d="M275.061 196.534C269.067 200.364 262.055 201.183 255.561 198.81C249.365 196.414 244.139 191.321 240.907 184.53C237.153 177.89 227.158 159.108 228.427 154.256C229.914 148.454 233.076 144.853 238.359 146.416C242.072 147.491 249.154 169.174 252.586 177.84C253.928 180.253 256.507 184.092 259.388 185.268C264.473 187.381 268.217 186.518 273.542 185.555C274.52 186.255 274.447 187.343 274.936 188.556C275.461 189.787 275.745 191.145 275.766 192.528C275.788 193.91 275.547 195.281 275.061 196.534Z" fill="#A3A3A3"/>
<path d="M227.262 108.79C225.671 119.068 225.182 123.458 220.274 128.134C212.91 135.162 202.75 130.56 201.762 119.906C200.867 110.315 203.623 95.1097 212.484 92.2462C214.435 91.6024 216.491 91.5692 218.456 92.1497C220.421 92.7302 222.229 93.9051 223.71 95.5628C225.191 97.2205 226.295 99.306 226.917 101.621C227.538 103.936 227.657 106.404 227.262 108.79Z" fill="#FFB573"/>
<path d="M257.607 165.698C255.974 167.936 255.465 169.237 253.187 170.45C250.91 171.663 245.98 170.6 244.41 168.286C244.919 170.087 247.894 173.288 249.454 173.576C247.693 174.737 245.656 175.141 243.678 174.723C241.701 174.305 239.901 173.089 238.575 171.275C238.793 172.403 239.247 173.444 239.896 174.3C240.544 175.157 241.364 175.798 242.278 176.164C222.351 176.789 230.744 165.51 218.264 149.467C204.453 131.71 207.448 117.03 207.448 117.03C207.481 113.374 206.529 109.803 204.734 106.851C202.737 103.775 203.319 99.6238 203.954 97.2979C204.879 93.8842 207.698 92.6838 210.402 92.4837C210.88 89.12 216.642 89.7327 217.338 90.2954C218.035 90.8581 218.118 90.7455 218.753 90.2954C220.157 89.2075 223.693 88.0821 227.478 91.7584C229.787 94.0092 232.262 98.0107 232.346 106.614C232.429 115.53 228.882 126.121 241.154 139.663C248.382 147.616 244.919 164.76 257.607 165.698Z" fill="#313131"/>
<path d="M205.807 109.565C204.84 111.214 204.438 113.246 204.684 115.242C205.037 117.88 207.169 118.056 208.719 116.367C210.269 114.679 211.621 111.628 210.477 109.44C209.333 107.252 207.013 107.564 205.807 109.565Z" fill="#FFB573"/>
<path d="M225.107 216.366C225.107 216.366 220.853 288.155 216.069 335.497C214.631 349.705 211.028 363.473 205.441 376.112L181.999 429.331L169.977 423.642C169.977 423.642 178.297 373.061 194.51 345.476C194.51 345.476 182.384 263.033 198.254 216.116L225.107 216.366Z" fill="#F58220"/>
<path opacity="0.2" d="M208.761 233.76C208.761 233.76 212.339 266.272 214.294 285.617C206.962 273.987 201.273 257.757 208.761 233.76Z" fill="black"/>
<path d="M255.465 457.492C255.604 457.305 255.701 457.077 255.745 456.832C255.789 456.586 255.778 456.331 255.714 456.091C255.69 455.938 255.632 455.795 255.546 455.679C255.46 455.562 255.349 455.476 255.226 455.429C254.113 454.978 251.523 457.417 251.232 457.692C251.2 457.725 251.176 457.768 251.163 457.817C251.15 457.866 251.149 457.918 251.159 457.967C251.172 458.013 251.196 458.054 251.227 458.085C251.258 458.116 251.296 458.135 251.336 458.142C252.144 458.29 252.964 458.328 253.78 458.255C254.398 458.242 254.993 457.973 255.465 457.492ZM255.08 455.916C255.135 455.936 255.185 455.975 255.222 456.028C255.259 456.082 255.282 456.147 255.288 456.216C255.334 456.372 255.344 456.54 255.319 456.703C255.293 456.865 255.232 457.017 255.142 457.142C254.726 457.704 253.541 457.904 251.918 457.704C252.979 456.754 254.498 455.666 255.08 455.916Z" fill="#A3A3A3"/>
<path d="M251.493 458.104C252.314 457.417 253.781 454.903 253.469 453.715C253.419 453.518 253.315 453.346 253.173 453.23C253.031 453.114 252.86 453.06 252.689 453.078C252.523 453.072 252.358 453.109 252.206 453.187C252.053 453.265 251.916 453.381 251.805 453.528C250.9 454.678 251.139 457.779 251.149 457.917C251.156 457.961 251.17 458.004 251.192 458.04C251.213 458.077 251.242 458.108 251.274 458.13C251.312 458.141 251.351 458.141 251.389 458.13C251.425 458.134 251.461 458.125 251.493 458.104ZM252.678 453.59C252.959 453.59 253.032 453.74 253.063 453.853C253.24 454.591 252.356 456.454 251.555 457.367C251.434 456.162 251.631 454.942 252.117 453.878C252.235 453.72 252.398 453.621 252.574 453.603L252.678 453.59Z" fill="#A3A3A3"/>
<path d="M240.783 459.117L249.894 458.067L247.107 433.183L237.996 434.246L240.783 459.117Z" fill="#FFB573"/>
<path d="M250.504 456.754L240.27 457.942C240.095 457.957 239.929 458.05 239.807 458.202C239.684 458.354 239.612 458.555 239.605 458.767L239.23 468.483C239.231 468.73 239.274 468.974 239.358 469.199C239.442 469.424 239.565 469.625 239.718 469.789C239.871 469.953 240.051 470.077 240.247 470.151C240.443 470.226 240.649 470.25 240.853 470.221C244.41 469.746 246.053 469.296 250.608 468.771C253.374 468.446 257.451 468.321 261.278 467.883C265.106 467.445 264.929 462.944 263.358 462.719C256.078 461.731 254.737 459.355 252.137 457.242C251.656 456.856 251.079 456.683 250.504 456.754Z" fill="#313131"/>
<path d="M234.116 216.354C234.116 216.354 245.775 302.023 248.011 352.766L248.437 443.674L239.004 445.888C239.004 445.888 225.349 387.892 223.768 354.367C219.608 265.434 195.512 265.284 210.009 216.191L234.116 216.354Z" fill="#F58220"/>
<path d="M251.565 444.049L235.954 446.613L234.363 439.41L251.055 436.797L251.565 444.049Z" fill="#A3A3A3"/>
<path d="M167.44 124.445H168.033C167.891 124.445 167.752 124.479 167.622 124.546C167.492 124.613 167.375 124.711 167.278 124.833C167.181 124.956 167.105 125.102 167.056 125.261C167.007 125.42 166.985 125.589 166.993 125.758L167.949 147.529C167.978 147.87 168.11 148.187 168.322 148.418C168.533 148.649 168.808 148.778 169.093 148.779H168.48C168.195 148.775 167.921 148.645 167.71 148.415C167.499 148.185 167.366 147.869 167.336 147.529L166.4 125.758C166.393 125.589 166.414 125.42 166.463 125.261C166.513 125.102 166.588 124.956 166.685 124.833C166.783 124.711 166.9 124.613 167.029 124.546C167.159 124.479 167.299 124.445 167.44 124.445Z" fill="#A3A3A3"/>
<path opacity="0.1" d="M167.44 124.445H168.033C167.891 124.445 167.752 124.479 167.622 124.546C167.492 124.613 167.375 124.711 167.278 124.833C167.181 124.956 167.105 125.102 167.056 125.261C167.007 125.42 166.985 125.589 166.993 125.758L167.949 147.529C167.978 147.87 168.11 148.187 168.322 148.418C168.533 148.649 168.808 148.778 169.093 148.779H168.48C168.195 148.775 167.921 148.645 167.71 148.415C167.499 148.185 167.366 147.869 167.336 147.529L166.4 125.758C166.393 125.589 166.414 125.42 166.463 125.261C166.513 125.102 166.588 124.956 166.685 124.833C166.783 124.711 166.9 124.613 167.029 124.546C167.159 124.479 167.299 124.445 167.44 124.445Z" fill="white"/>
<path d="M168.639 148.842H175.919C176.194 148.842 176.459 148.71 176.654 148.475C176.849 148.241 176.959 147.923 176.959 147.591L176.012 125.821C175.994 125.469 175.866 125.138 175.654 124.895C175.442 124.652 175.161 124.513 174.868 124.508H167.588C167.447 124.508 167.307 124.542 167.178 124.609C167.048 124.675 166.931 124.773 166.834 124.896C166.736 125.019 166.661 125.164 166.612 125.323C166.563 125.482 166.541 125.651 166.548 125.821L167.495 147.591C167.525 147.932 167.658 148.247 167.869 148.478C168.08 148.708 168.354 148.838 168.639 148.842Z" fill="#A3A3A3"/>
<path opacity="0.4" d="M168.639 148.842H175.919C176.194 148.842 176.459 148.71 176.654 148.475C176.849 148.241 176.959 147.923 176.959 147.591L176.012 125.821C175.994 125.469 175.866 125.138 175.654 124.895C175.442 124.652 175.161 124.513 174.868 124.508H167.588C167.447 124.508 167.307 124.542 167.178 124.609C167.048 124.675 166.931 124.773 166.834 124.896C166.736 125.019 166.661 125.164 166.612 125.323C166.563 125.482 166.541 125.651 166.548 125.821L167.495 147.591C167.525 147.932 167.658 148.247 167.869 148.478C168.08 148.708 168.354 148.838 168.639 148.842Z" fill="white"/>
<path d="M176.519 147.079C176.525 147.188 176.512 147.297 176.482 147.4C176.451 147.504 176.404 147.598 176.342 147.679C176.212 147.832 176.036 147.917 175.854 147.916H168.771C168.573 147.914 168.383 147.82 168.24 147.655C168.098 147.491 168.012 147.266 168.002 147.029L167.076 125.908C167.069 125.801 167.082 125.693 167.112 125.592C167.143 125.491 167.191 125.398 167.253 125.321C167.315 125.24 167.391 125.177 167.475 125.133C167.559 125.09 167.65 125.069 167.742 125.071H174.824C175.022 125.073 175.212 125.167 175.355 125.332C175.498 125.497 175.583 125.721 175.594 125.958L175.656 127.472L176.519 147.079Z" fill="#313131"/>
<g opacity="0.1">
<path d="M175.657 127.472L173.307 147.891H170.488L173.151 125.046H174.825C175.023 125.048 175.213 125.142 175.356 125.307C175.499 125.472 175.584 125.696 175.595 125.933L175.657 127.472Z" fill="white"/>
<path d="M169.47 147.916H168.836L171.498 125.071H172.133L169.47 147.916Z" fill="white"/>
</g>
<path d="M196.062 218.792C190.767 231.34 187.921 245.175 187.742 259.245C205.422 275.738 221.885 256.419 242.124 259.682C241.417 248.691 238.307 228.421 234.625 218.267C221.22 218.955 208.698 217.342 196.062 218.792Z" fill="#A3A3A3"/>
<path d="M197.903 214.328C197.903 214.328 196.478 218.742 196.863 218.742H234.001C234.324 218.742 234.584 218.555 234.604 218.305L234.927 214.553C234.927 214.291 234.667 214.066 234.324 214.066H198.485C198.378 214.048 198.268 214.063 198.166 214.109C198.065 214.154 197.974 214.23 197.903 214.328Z" fill="white"/>
<path d="M203.134 219.167H202.177C201.979 219.167 201.834 219.042 201.844 218.892L202.302 213.891C202.302 213.74 202.479 213.628 202.666 213.628H203.633C203.82 213.628 203.966 213.74 203.955 213.891L203.508 218.892C203.479 218.981 203.427 219.056 203.359 219.105C203.292 219.155 203.213 219.177 203.134 219.167Z" fill="#A3A3A3"/>
<path d="M226.389 219.167H225.432C225.245 219.167 225.099 219.042 225.11 218.892L225.557 213.891C225.557 213.74 225.734 213.628 225.932 213.628H226.888C227.076 213.628 227.221 213.74 227.211 213.891L226.763 218.892C226.722 218.992 226.587 219.167 226.389 219.167Z" fill="#A3A3A3"/>
</g>
<defs>
<clipPath id="clip0_1175_5460">
<rect width="520" height="480" fill="white"/>
</clipPath>
</defs>
</svg>
