<svg width="500" height="108" viewBox="0 0 500 108" fill="none" xmlns="http://www.w3.org/2000/svg">
<path d="M91.5516 9V43.2774H117.458V9H133.197V99H117.458V64.2127H91.5516V99H75.8203V9H91.5516Z" fill="#41968C"/>
<path d="M137.293 99L161.839 9H182.382L206.965 99H190.006L184.896 79.1241H159.176L153.969 99H137.293ZM164.293 59.5084H179.816L172.096 29.8301L164.293 59.5084Z" fill="#41968C"/>
<path d="M239.266 9.03253C253.709 9.03253 263.305 18.7156 263.305 39.7626C263.305 55.0626 256.392 64.8759 247.047 66.9687L264.345 99H245.921L230.789 67.359H225.768V99H211.066V9L239.266 9.03253ZM225.776 29.9602V50.4867H238.749C244.487 50.4867 247.915 47.353 247.915 40.0229C247.915 33.094 244.451 29.9602 238.749 29.9602H225.776Z" fill="#41968C"/>
<path d="M266.395 9H319.673V29.9353H300.81V99H285.25V29.9353H266.395V9Z" fill="#41968C"/>
<path d="M372.952 9V29.9353H340.5V43.2774H368.636V64.2127H340.5V78.0756H372.952V99H325.82V9H372.952Z" fill="#41968C"/>
<path d="M434.425 60.9922C434.425 83.8183 426.819 99 408.81 99C390.801 99 383.195 83.7862 383.195 60.9601V9H398.407V61.3877C398.407 72.2181 401.877 77.1254 408.81 77.1254C415.743 77.1254 419.206 72.2181 419.206 61.3877V9H434.425V60.9922Z" fill="#41968C"/>
<path d="M474.9 9.03253C489.344 9.03253 498.94 18.7156 498.94 39.7626C498.94 55.0626 492.026 64.8759 482.682 66.9687L500.001 99H481.577L466.445 67.359H461.425V99H446.723V9L474.9 9.03253ZM461.403 29.9602V50.4867H474.398C480.136 50.4867 483.571 47.353 483.571 40.0229C483.571 33.094 480.107 29.9602 474.398 29.9602H461.403Z" fill="#41968C"/>
<g clip-path="url(#clip0_1175_5907)">
<path d="M34.6172 70.7124L36.8828 108L69.6728 80.9791V70.7124H34.6172Z" fill="url(#paint0_linear_1175_5907)"/>
<path d="M34.6172 37.297H69.6728V26.9999L36.8828 0.00927734L34.6172 37.297Z" fill="url(#paint1_linear_1175_5907)"/>
<path d="M17.9108 15.5928V92.3627L4.09766 80.9672V26.9883L17.9108 15.5928Z" fill="#30C3B1"/>
<path d="M36.8869 0V107.988L23.0508 96.5928V11.3955L36.8869 0Z" fill="#30C3B1"/>
</g>
<defs>
<linearGradient id="paint0_linear_1175_5907" x1="34.6172" y1="89.3551" x2="69.6728" y2="89.3551" gradientUnits="userSpaceOnUse">
<stop stop-color="#188C7B"/>
<stop offset="0.07" stop-color="#1B9281"/>
<stop offset="0.43" stop-color="#26AD9B"/>
<stop offset="0.75" stop-color="#2DBDAB"/>
<stop offset="1" stop-color="#30C3B1"/>
</linearGradient>
<linearGradient id="paint1_linear_1175_5907" x1="34.6172" y1="18.6543" x2="4.26322" y2="18.6543" gradientUnits="userSpaceOnUse">
<stop stop-color="#188C7B"/>
<stop offset="0.07" stop-color="#1B9281"/>
<stop offset="0.43" stop-color="#26AD9B"/>
<stop offset="0.75" stop-color="#2DBDAB"/>
<stop offset="1" stop-color="#30C3B1"/>
</linearGradient>
<clipPath id="clip0_1175_5907">
<rect width="65.5737" height="108" fill="white" transform="translate(4.09766)"/>
</clipPath>
</defs>
</svg>
